
<svg xmlns="http://www.w3.org/2000/svg" width="103.528mm" height="103.53mm" viewBox="0 0 103.528 103.53" version="1.1" id="svg17405">
  <defs id="defs17399"></defs>
  
  
  <g id="layer1">
    <path id="path1778-8" style="fill:#ffffff;fill-opacity:1;fill-rule:nonzero;stroke:none;stroke-width:0.307229" d="M 87.927245,15.998701 C 78.298765,6.330277 65.484335,1.002963 51.849615,0.96918096 38.211795,0.95074096 25.378945,6.241195 15.722805,15.863516 6.0635949,25.492008 0.73321494,38.300308 0.70556494,51.919658 c -0.0207,13.64087 5.26585996,26.47375 14.89127006,36.13909 9.6285,9.6623 22.43679,14.995752 36.07458,15.023402 13.63165,0.0184 26.46452,-5.272022 36.12682,-14.900492 9.65612,-9.62543 14.986495,-22.43679 15.014145,-36.07766 0,-0.0307 0,-0.0645 0,-0.0984 0,-13.58866 -5.284285,-26.37237 -14.885135,-36.006997"></path>
    <path id="path60-1" style="fill:#565353;fill-opacity:1;fill-rule:nonzero;stroke:none;stroke-width:0.0352777" d="m 29.530765,10.812707 -4.04318,2.332566 c -0.009,0.0049 -0.0119,0.01553 -0.007,0.02469 l 0.49953,0.862894 c 0.005,0.0085 0.014,0.01164 0.0241,0.0078 l 2.97566,-1.716968 c 0.0501,-0.02963 0.0946,-0.04304 0.11854,-0.03316 0.0169,0.0049 0.0452,0.0254 0.0882,0.09701 l 1.76387,3.061056 c 0.007,0.01058 0.019,0.01482 0.0311,0.0085 l 1.01246,-0.5842 c 0.0119,-0.0081 0.0167,-0.01939 0.01,-0.03175 l -2.28706,-3.964516 c -0.0596,-0.104775 -0.15451,-0.08114 -0.18555,-0.06385"></path>
    <path id="path62-5" style="fill:#565353;fill-opacity:1;fill-rule:nonzero;stroke:none;stroke-width:0.0352777" d="m 33.665325,15.72549 c 0.0279,0.04798 1.17687,2.041178 1.17687,2.041178 0.005,0.008 0.0138,0.0106 0.0233,0.006 l 1.01741,-0.58596 c 0.007,-0.005 0.0116,-0.0155 0.007,-0.0226 0,0 -2.51778,-4.363859 -2.53437,-4.394552 0.0289,-0.01728 1.04389,-0.601132 1.04389,-0.601132 0.007,-0.0049 0.0146,-0.01765 0.009,-0.02434 l -0.49636,-0.862894 c -0.003,-0.0032 -0.007,-0.0074 -0.0124,-0.0088 -0.003,-0.0011 -0.007,0 -0.0114,0.0024 0,0 -1.01778,0.585611 -1.04669,0.603954 -0.0183,-0.02963 -1.67606,-2.906534 -1.67606,-2.906534 -0.006,-0.0095 -0.0161,-0.01236 -0.0236,-0.0071 l -1.01743,0.587375 c -0.009,0.0046 -0.0124,0.01447 -0.007,0.02363 0,0 3.02155,5.237336 3.03144,5.256035 0,0 -2.79365,1.611489 -2.82189,1.628428 -0.019,-0.02929 -1.40017,-2.42747 -1.40017,-2.42747 -0.005,-0.0063 -0.0161,-0.0092 -0.0236,-0.0042 l -1.0174,0.58455 c -0.007,0.0049 -0.0116,0.01693 -0.007,0.024 0,0 1.38396,2.39712 1.40018,2.42746 -0.0286,0.0173 -1.4926,0.86043 -1.4926,0.86043 -0.007,0.005 -0.0116,0.0162 -0.007,0.0229 l 0.49988,0.86465 c 0.004,0.008 0.0138,0.0102 0.0236,0.006 l 5.36292,-3.093153"></path>
    <path id="path64-6" style="fill:#565353;fill-opacity:1;fill-rule:nonzero;stroke:none;stroke-width:0.0352777" d="m 78.992315,12.694423 c -0.003,-0.0046 -0.005,-0.0095 -0.009,-0.0113 l -0.95708,-0.57397 c -0.009,-0.0049 -0.022,-0.0035 -0.0265,0.006 0,0 -1.54305,2.572101 -1.56104,2.603148 l -0.5461,-0.328083 c 0.0172,-0.03175 1.56388,-2.601739 1.56388,-2.601739 0.003,-0.0039 0.003,-0.0088 0.003,-0.0141 0,-0.0035 -0.003,-0.0078 -0.007,-0.0099 l -0.95816,-0.574324 c -0.01,-0.0046 -0.0209,-0.0028 -0.0251,0.006 l -3.12031,5.197121 -2.65959,-1.59491 c -0.0332,-0.01976 -0.0529,-0.04515 -0.0635,-0.08325 -0.008,-0.0374 0.003,-0.07902 0.0332,-0.129115 0,0 2.08952,-3.482272 2.1068,-3.512609 0.0293,0.01659 2.04753,1.228018 2.04753,1.228018 0.007,0.0049 0.019,0.0013 0.0246,-0.006 l 0.51117,-0.85337 c 0.005,-0.0081 0,-0.01939 -0.005,-0.02434 l -3.08152,-1.846439 c -0.009,-0.006 -0.0204,-0.0032 -0.0243,0.0046 l -2.5527,4.254852 c -0.23495,0.394051 -0.32771,0.739775 -0.27339,1.025172 0.0564,0.288219 0.25188,0.534459 0.58349,0.734129 l 1.5494,0.928164 c 0.0469,0.0286 0.74506,0.44626 1.27283,0.762 l -1.21039,2.01612 c -0.005,0.008 -0.003,0.0187 0.006,0.024 l 0.95674,0.5775 c 0.003,0.004 0.01,0.005 0.0135,0.002 0.004,-0.002 0.008,-0.005 0.009,-0.01 0,0 2.7545,-4.583291 2.77249,-4.614336 0.0289,0.01765 0.51787,0.311502 0.54681,0.328787 -0.0188,0.02928 -2.77248,4.609749 -2.77248,4.609749 -0.004,0.009 -0.003,0.0194 0.006,0.0243 l 0.95567,0.57856 c 0.005,0.004 0.008,0.004 0.0135,0.001 0.005,-0.001 0.01,-0.004 0.0119,-0.008 l 4.86196,-8.104012 c 0.003,-0.0046 0.004,-0.0074 0.004,-0.01236"></path>
    <path id="path66-6" style="fill:#565353;fill-opacity:1;fill-rule:nonzero;stroke:none;stroke-width:0.0352777" d="m 93.474545,30.338958 -3.27765,-5.43207 c -0.005,-0.008 -0.0151,-0.012 -0.0254,-0.007 l -0.8509,0.514 c -0.008,0.005 -0.0109,0.0176 -0.007,0.0247 l 2.62819,4.36245 c 0.0214,0.0342 0.0402,0.0723 0.0356,0.10831 -0.006,0.0437 -0.0505,0.0744 -0.0931,0.0995 l -4.08376,2.46521 c -0.0119,0.007 -0.014,0.0191 -0.01,0.0289 l 0.6195,1.02446 c 0.006,0.012 0.0193,0.0145 0.03,0.007 l 4.97806,-3.00249 c 0.10935,-0.0903 0.0564,-0.19015 0.0564,-0.19262"></path>
    <path id="path68-9" style="fill:#565353;fill-opacity:1;fill-rule:nonzero;stroke:none;stroke-width:0.0352777" d="m 88.081285,34.704578 c 0,-0.005 0,-0.0113 -0.003,-0.0141 0,0 -1.58186,-2.61831 -1.59774,-2.64936 0.0282,-0.0173 3.15667,-1.90429 3.15667,-1.90429 0.01,-0.006 0.0124,-0.0169 0.007,-0.0251 l -0.59161,-0.98178 c -0.007,-0.008 -0.0167,-0.0106 -0.0265,-0.006 0,0 -3.12877,1.88772 -3.157,1.90536 l -0.42051,-0.6978 c 0.0282,-0.0176 3.15664,-1.90394 3.15664,-1.90394 0.01,-0.007 0.0116,-0.0166 0.007,-0.0251 l -0.59161,-0.98037 c -0.005,-0.009 -0.0156,-0.0109 -0.0241,-0.005 0,0 -3.12843,1.88736 -3.15807,1.90464 -0.0182,-0.0286 -1.0555,-1.74836 -1.0555,-1.74836 -0.006,-0.008 -0.0159,-0.0109 -0.0236,-0.006 l -0.86182,0.51858 c -0.007,0.006 -0.0108,0.0166 -0.005,0.0261 l 4.29329,7.11624 c 0.007,0.01 0.0177,0.013 0.0265,0.007 l 0.86079,-0.51893 c 0.003,-0.002 0.007,-0.006 0.007,-0.0113"></path>
    <path id="path70-7" style="fill:#565353;fill-opacity:1;fill-rule:nonzero;stroke:none;stroke-width:0.0352777" d="m 67.358055,11.078703 -7.90151,-2.242255 c -0.005,0 -0.009,-0.0024 -0.0116,0 -0.005,0.0024 -0.008,0.006 -0.0109,0.0099 l -0.26599,0.941212 c -0.003,0.0092 0.003,0.01905 0.0127,0.02151 0,0 3.27165,0.927099 3.30552,0.936624 l -0.14076,0.496711 c -0.0349,-0.0092 -2.45144,-0.697087 -2.45144,-0.697087 -0.0119,-0.0024 -0.022,0.0046 -0.0246,0.01236 l -0.25752,0.91793 c -0.003,0.0095 0,0.01871 0.0116,0.02117 0,0 4.89937,1.389943 4.93287,1.39982 -0.0109,0.03034 -0.12806,0.446971 -0.13721,0.475898 -0.0321,-0.0095 -4.93149,-1.398058 -4.93149,-1.398058 -0.005,-0.0021 -0.0109,-0.0021 -0.014,0 -0.003,0.0013 -0.007,0.006 -0.007,0.01058 l -0.39298,1.382183 c -0.0783,0.272697 -0.13619,0.579967 0.0222,0.799394 0.096,0.137582 0.25083,0.234597 0.48895,0.302331 l 5.35268,1.518001 c 0.0103,0.0028 0.0193,-0.0032 0.0233,-0.0141 l 0.2653,-0.936976 c 0.003,-0.01093 -0.003,-0.02045 -0.0116,-0.02328 l -4.87326,-1.381832 c -0.0235,-0.0071 -0.0462,-0.02716 -0.0378,-0.05609 0,0 0.10231,-0.354189 0.10935,-0.38629 0.0356,0.0092 4.71911,1.336323 4.71911,1.336323 0.0825,0.02574 0.14499,0.02011 0.19402,-0.01799 0.0459,-0.03775 0.0766,-0.08714 0.0946,-0.149225 l 0.54539,-1.925814 c 0.0204,-0.07161 0,-0.161924 -0.085,-0.186973 0,0 -2.21264,-0.626534 -2.24439,-0.635704 l 0.14254,-0.50024 c 0.0321,0.0095 3.30305,0.940859 3.30305,0.940859 0.004,0.0013 0.01,0.0013 0.0135,-0.0013 0.005,-0.0024 0.008,-0.0042 0.01,-0.0099 l 0.26633,-0.935918 c 0,-0.01024 -0.004,-0.02151 -0.0135,-0.02363"></path>
    <path id="path72-8" style="fill:#565353;fill-opacity:1;fill-rule:nonzero;stroke:none;stroke-width:0.0352777" d="m 67.203195,9.685231 c -0.18698,-0.06103 -0.37076,-0.135467 -0.54962,-0.224719 -1.01494,-0.500946 -2.03694,-1.3843 -1.68841,-2.630313 l 0.1764,-0.629001 c 0.004,-0.0081 -0.003,-0.02011 -0.01,-0.02223 l -1.26682,-0.359127 c -0.0103,-0.0024 -0.0193,0.0049 -0.023,0.0127 l -0.17712,0.629002 c -0.36017,1.243541 -1.69545,1.457676 -2.81762,1.351491 -0.20214,-0.01765 -0.39688,-0.05115 -0.58949,-0.09843 -0.079,-0.0074 -0.0667,0.0822 -0.0667,0.0822 l 0.21238,0.811387 c 0.003,0.0028 0.0172,0.02752 0.0409,0.03387 0.65336,0.184857 1.33633,0.251532 1.99355,0.132998 0.36724,-0.06844 0.72742,-0.195085 1.0682,-0.375708 0.12632,-0.06914 0.2653,-0.137935 0.37608,-0.233185 0.0451,0.137935 0.12594,0.270578 0.20072,0.396875 0.19121,0.330552 0.43251,0.63006 0.71085,0.879827 0.49636,0.445206 1.1116,0.748241 1.7653,0.934155 0.0212,0.006 0.0473,-0.0074 0.0529,-0.0088 l 0.6082,-0.578202 c 0,0 0.0585,-0.06914 -0.0169,-0.104775"></path>
    <path id="path74-2" style="fill:#565353;fill-opacity:1;fill-rule:nonzero;stroke:none;stroke-width:0.0352777" d="m 11.342245,39.270588 c -0.004,0.81738 -0.67839,1.48026 -1.5031801,1.48026 -0.82798,0 -1.50037,-0.67134 -1.49331,-1.48873 0,-0.83079 0.67274,-1.50883 1.49789,-1.50883 0.8297401,0.005 1.5010701,0.68015 1.4986001,1.5173"></path>
    <path id="path76-8" style="fill:#565353;fill-opacity:1;fill-rule:nonzero;stroke:none;stroke-width:0.0352777" d="m 95.222205,39.317858 c 0,0.83467 -0.67345,1.50107 -1.50424,1.49508 -0.83256,-0.001 -1.49013,-0.66852 -1.49013,-1.49967 0.003,-0.8255 0.66429,-1.50036 1.4919,-1.49789 0.83537,0 1.50776,0.67804 1.50247,1.50248"></path>
    <path id="path78-2" style="fill:#565353;fill-opacity:1;fill-rule:nonzero;stroke:none;stroke-width:0.0352777" d="M 88.435825,15.227721 C 78.674125,5.432496 65.681655,0.02617496 51.856305,7.0964345e-5 38.027775,-0.02249904 25.017315,5.339362 15.225975,15.098606 5.4325149,24.861378 0.02619494,37.846068 8.4941047e-5,51.660848 -0.02461506,65.491848 5.3383249,78.504058 15.098625,88.302458 c 9.75888,9.79311 22.74818,15.201552 36.57459,15.227662 13.82289,0.0243 26.8365,-5.341412 36.63349,-15.102772 9.78959,-9.75995 15.196265,-22.75064 15.221295,-36.58305 0,-0.0335 0,-0.0674 0,-0.10231 0,-13.7788 -5.357625,-26.74126 -15.092175,-36.514267 z m -1.08868,72.232667 c -9.54191,9.50736 -22.2077,14.729172 -35.67393,14.704122 -13.45777,-0.0215 -26.10697,-5.290602 -35.61292,-14.830072 -9.5084101,-9.53946 -14.7277701,-22.20665 -14.7037801,-35.67359 0.0212,-13.45071 5.28956,-26.09321 14.8297201,-35.596337 9.53665,-9.50489 22.20278,-14.726003 35.67007,-14.702013 13.46518,0.02611 26.11615,5.291666 35.61644,14.827956 9.50454,9.532764 14.724925,22.196774 14.700955,35.651014 -0.0251,13.46518 -5.290975,26.1172 -14.826555,35.61892"></path>
    <path id="path80-2" style="fill:#b4131d;fill-opacity:1;fill-rule:nonzero;stroke:none;stroke-width:0.0352777" d="m 62.435405,24.227788 h -21.54838 c -0.0642,0 -0.11181,0.0536 -0.11181,0.11183 v 21.6655 h 5.66065 l 5.22782,-7.26335 5.22889,7.26335 h 5.66277 v -21.6655 c 0,-0.0582 -0.0543,-0.11183 -0.11994,-0.11183"></path>
    <path id="path82-5" style="fill:#173a79;fill-opacity:1;fill-rule:nonzero;stroke:none;stroke-width:0.0352777" d="m 40.775215,46.005118 h -21.66515 c -0.0596,0 -0.1136,0.0497 -0.1136,0.11642 v 14.39968 h 7.26193 v 7.25946 h 14.41979 c 0.0596,0 0.097,-0.0392 0.097,-0.0924 v -21.68316"></path>
    <path id="path84-2" style="fill:#9e9c9d;fill-opacity:1;fill-rule:nonzero;stroke:none;stroke-width:0.0352777" d="m 84.330895,60.521218 h -7.25945 v -7.25876 h 7.25945 v -7.16703 c 0,-0.0501 -0.0392,-0.0903 -0.0917,-0.0903 h -21.68384 v 21.67184 c 0,0.0617 0.0441,0.10372 0.10125,0.10372 h 21.57058 c 0.06,0 0.10372,-0.042 0.10372,-0.10372 v -7.15574"></path>
    <path id="path86-6" style="fill:#565353;fill-opacity:1;fill-rule:nonzero;stroke:none;stroke-width:0.0352777" d="m 24.677245,82.523258 c 0,-0.002 -0.005,-0.004 -0.005,-0.004 l -0.0998,-0.10266 c -0.0349,-0.0363 -0.0804,-0.0787 -0.12843,-0.1143 -0.0497,-0.0392 -0.09,-0.0695 -0.1351,-0.0974 l -0.0356,-0.0222 c 0,0 -2.46943,2.58374 -2.72872,2.85467 0.11641,-0.35983 1.34019,-4.185 1.34019,-4.185 l -0.0114,-0.0215 c -0.0296,-0.0434 -0.0667,-0.0885 -0.0977,-0.12382 -0.0307,-0.0406 -0.0667,-0.0787 -0.109,-0.1143 -0.0311,-0.031 -0.0692,-0.0674 -0.11714,-0.10195 l -0.0825,-0.0617 -0.0762,-0.0526 -0.0286,0.0307 -3.81812,3.99168 0.024,0.0314 c 0.0236,0.0349 0.0497,0.0776 0.0882,0.12136 0.002,0.002 0.0141,0.0138 0.0141,0.0138 l 0.10195,0.10689 0.1076,0.0921 0.0141,0.0141 c 0.0448,0.0367 0.0878,0.0649 0.13052,0.0938 l 0.0335,0.0201 c 0,0 2.45781,-2.5707 2.71464,-2.84128 -0.11184,0.36019 -1.32186,4.17866 -1.32186,4.17866 l 0.0907,0.11747 0.0188,0.0243 c 0.0339,0.0416 0.0716,0.0776 0.10972,0.11466 0.0392,0.0406 0.0776,0.073 0.11854,0.1023 0.0416,0.0349 0.0843,0.0663 0.13086,0.0903 l 0.0314,0.0187 3.84492,-4.02061 -0.11853,-0.15346"></path>
    <path id="path88-0" style="fill:#565353;fill-opacity:1;fill-rule:nonzero;stroke:none;stroke-width:0.0352777" d="m 39.672425,91.018148 -0.16652,-0.0392 c -0.0564,-0.0116 -0.11359,-0.0173 -0.16368,-0.0236 l -0.0402,-0.005 -0.0119,0.0381 -1.57869,5.30013 0.18521,0.0822 0.11218,0.0402 0.0522,0.0187 c 0.004,0 0.1471,0.0363 0.1471,0.0363 l 0.022,0.007 0.0614,0.007 0.14287,0.0169 0.007,-0.0409 1.58046,-5.2959 -0.1852,-0.0825 c -0.0505,-0.0198 -0.10621,-0.0416 -0.16442,-0.0596"></path>
    <path id="path90-2" style="fill:#565353;fill-opacity:1;fill-rule:nonzero;stroke:none;stroke-width:0.0352777" d="m 96.831585,64.627198 v 0"></path>
    <path id="path92-7" style="fill:#565353;fill-opacity:1;fill-rule:nonzero;stroke:none;stroke-width:0.0352777" d="m 26.885275,84.362998 c -0.0451,-0.0497 -0.09,-0.097 -0.13547,-0.13794 -0.0423,-0.0378 -0.0924,-0.084 -0.1425,-0.12312 -0.0572,-0.0455 -0.11184,-0.0836 -0.16404,-0.11924 -0.0473,-0.0346 -0.10091,-0.0663 -0.15912,-0.0967 l -0.0257,-0.0138 -0.0243,0.0166 -4.61857,3.40289 0.0311,0.0402 c 0.0335,0.0388 0.0688,0.0773 0.11641,0.11818 0.043,0.0427 0.0861,0.0797 0.13335,0.11889 0.0451,0.0388 0.0949,0.0699 0.14039,0.0995 0.0522,0.037 0.10126,0.0646 0.1496,0.0885 l 0.0265,0.0127 c 0,0 0.9719,-0.74824 1.02622,-0.7934 0.055,0.0452 1.26119,0.99554 1.31445,1.03928 -0.0282,0.066 -0.53129,1.18604 -0.53129,1.18604 l 0.0204,0.024 c 0.0356,0.0434 0.0762,0.0857 0.1189,0.12453 l 0.13158,0.11183 c 0,0.003 0.15311,0.1136 0.15311,0.1136 l 0.15097,0.0896 0.0476,0.0282 0.0204,-0.0497 2.24192,-5.25921 z m -2.00588,2.92135 c -0.0854,-0.066 -0.9197,-0.72672 -1.00542,-0.7934 0.0882,-0.067 1.82597,-1.4097 2.08245,-1.6069 -0.13335,0.29669 -1.03224,2.30081 -1.07703,2.4003"></path>
    <path id="path94-7" style="fill:#565353;fill-opacity:1;fill-rule:nonzero;stroke:none;stroke-width:0.0352777" d="m 34.505275,89.172408 c -0.0864,-0.0603 -0.18378,-0.11782 -0.29456,-0.17391 -0.10583,-0.0519 -0.21201,-0.0938 -0.31149,-0.127 l -0.0385,-0.0127 -1.40933,2.81799 c -0.14537,0.28645 -0.27483,0.51505 -0.405,0.69461 -0.12735,0.18168 -0.25435,0.31715 -0.38135,0.40182 -0.12631,0.0878 -0.25365,0.13264 -0.37925,0.13264 -0.1298,0.005 -0.27268,-0.0307 -0.43921,-0.11077 -0.15838,-0.0818 -0.27305,-0.17463 -0.35136,-0.2801 -0.0776,-0.11043 -0.11888,-0.23566 -0.12417,-0.38841 -0.009,-0.14817 0.0201,-0.32844 0.0903,-0.54716 0.0681,-0.20708 0.17251,-0.45685 0.31538,-0.74119 l 1.4097,-2.81904 -0.0345,-0.0226 c -0.0825,-0.0593 -0.17923,-0.11465 -0.28401,-0.16828 -0.11816,-0.0557 -0.22013,-0.0998 -0.31395,-0.12982 l -0.0378,-0.0134 -0.0204,0.0377 -1.45132,2.90582 c -0.1697,0.34008 -0.29175,0.64206 -0.36973,0.92746 -0.0776,0.29986 -0.10229,0.56092 -0.0755,0.79939 0.0279,0.23777 0.11853,0.46038 0.26212,0.65758 0.14605,0.19473 0.35912,0.36089 0.63145,0.49706 0.27305,0.133 0.5334,0.20179 0.7733,0.20179 0.24694,0 0.47697,-0.061 0.68228,-0.18274 0.20955,-0.11924 0.40675,-0.29704 0.59547,-0.5401 0.1764,-0.22578 0.34857,-0.50376 0.52107,-0.84984 l 1.47426,-2.94287 -0.0339,-0.024"></path>
    <path id="path96-8" style="fill:#565353;fill-opacity:1;fill-rule:nonzero;stroke:none;stroke-width:0.0352777" d="m 33.769735,94.980198 c -0.003,0 -0.003,0 -0.003,0 0,-0.002 -0.003,-0.002 -0.003,-0.002 l 0.005,0.002"></path>
    <path id="path98-1" style="fill:#565353;fill-opacity:1;fill-rule:nonzero;stroke:none;stroke-width:0.0352777" d="m 38.325855,90.660078 -0.11181,-0.0624 -0.0193,-0.008 c -0.0473,-0.0275 -0.0949,-0.0487 -0.14219,-0.066 l -0.0246,-0.009 c -0.0451,-0.0141 -0.0892,-0.0318 -0.13827,-0.0452 -0.003,0 -0.19722,-0.0437 -0.19722,-0.0437 l -0.0156,0.0367 c 0,0 -1.25378,3.30905 -1.38676,3.66006 -0.0332,-0.37641 -0.40111,-4.37656 -0.40111,-4.37656 l -0.0193,-0.0123 c -0.0469,-0.0307 -0.0956,-0.0579 -0.13618,-0.0808 -0.003,0 -0.0497,-0.0212 -0.0497,-0.0212 l -0.0928,-0.0416 -0.1524,-0.0437 c -0.0473,-0.0145 -0.0999,-0.03 -0.15557,-0.0374 l -0.0353,-0.003 -0.0145,0.0339 -1.9544,5.16608 0.0311,0.0201 c 0.0332,0.0229 0.0762,0.0515 0.13298,0.079 0.0487,0.0222 0.1016,0.0473 0.15452,0.0649 0.0452,0.0201 0.097,0.0346 0.15841,0.0469 -0.006,0 0.13546,0.0342 0.13546,0.0342 l 0.0512,0.0116 c 0,0 1.26013,-3.32986 1.39382,-3.67665 0.0321,0.3736 0.41275,4.36316 0.41275,4.36316 l 0.15947,0.0882 0.009,0.005 c 0.0434,0.0204 0.0882,0.0399 0.133,0.0533 0.0409,0.019 0.0857,0.0332 0.14745,0.0526 0,0 0.12843,0.0247 0.12843,0.0247 l 0.066,0.0141 0.0127,-0.0367 1.95403,-5.16926 -0.0332,-0.0208"></path>
    <path id="path100-0" style="fill:#565353;fill-opacity:1;fill-rule:nonzero;stroke:none;stroke-width:0.0352777" d="m 29.026995,85.917338 c -0.0452,-0.0423 -0.0836,-0.0776 -0.12348,-0.11078 -0.0497,-0.0399 -0.0924,-0.0741 -0.14039,-0.1023 -0.0596,-0.0409 -0.10443,-0.067 -0.14993,-0.0921 -0.0448,-0.0247 -0.0924,-0.0466 -0.14217,-0.0649 l -0.036,-0.0123 -0.0214,0.0307 -3.06141,4.60481 2.12018,1.41499 0.0286,-0.0332 c 0.0829,-0.10019 0.14994,-0.19156 0.20849,-0.28399 0.0307,-0.0437 0.0632,-0.0903 0.0935,-0.14182 0.0321,-0.0536 0.0617,-0.10618 0.0857,-0.15769 l 0.0167,-0.037 c 0,0 -1.42135,-0.94615 -1.4972,-0.9973 0.0526,-0.0794 2.6476,-3.99062 2.6476,-3.99062 l -0.0286,-0.0265"></path>
    <path id="path102-8" style="fill:#565353;fill-opacity:1;fill-rule:nonzero;stroke:none;stroke-width:0.0352777" d="m 18.903685,76.184898 c -0.0219,-0.0543 -0.0497,-0.10407 -0.0787,-0.15169 -0.0286,-0.0483 -0.0593,-0.0952 -0.0928,-0.14041 l -0.0924,-0.11677 -0.012,-0.0166 c -0.002,-7.9e-4 -0.0977,-0.0988 -0.0977,-0.0988 l -0.0522,-0.049 -0.031,0.0247 -4.45946,3.25791 0.0116,0.0324 c 0.0187,0.0445 0.0455,0.0928 0.0787,0.14711 l 0.0974,0.14464 c 0.0356,0.0476 0.0713,0.0952 0.10689,0.13582 0.0356,0.0399 0.0737,0.0787 0.11642,0.11641 l 0.0286,0.0268 4.49298,-3.27943 -0.0162,-0.0332"></path>
    <path id="path104-4" style="fill:#565353;fill-opacity:1;fill-rule:nonzero;stroke:none;stroke-width:0.0352777" d="m 98.465995,56.088208 c 0,-0.25223 -0.0473,-0.4833 -0.14005,-0.69391 -0.12136,-0.26176 -0.30233,-0.49001 -0.54152,-0.68086 -0.24093,-0.18451 -0.53514,-0.33444 -0.87312,-0.44486 -0.35137,-0.11042 -0.73483,-0.18662 -1.13171,-0.22013 -0.40428,-0.0409 -0.79375,-0.0384 -1.15252,0.004 -0.35454,0.0462 -0.66815,0.139 -0.94403,0.27658 -0.2734,0.14146 -0.49459,0.32985 -0.66323,0.56374 -0.16862,0.23283 -0.27128,0.52564 -0.30197,0.86536 -0.031,0.34149 0.014,0.64911 0.13687,0.90558 0.1203,0.26106 0.30585,0.48895 0.54541,0.67804 0.23283,0.18556 0.51892,0.33091 0.87241,0.44873 0.33549,0.11254 0.70413,0.18662 1.1317,0.2279 0.40958,0.0385 0.78706,0.0342 1.1529,-0.0113 0.35417,-0.0459 0.67061,-0.14111 0.9412,-0.2787 0.26916,-0.13546 0.49247,-0.32702 0.65934,-0.56232 0.16581,-0.23213 0.26599,-0.52317 0.29668,-0.86537 0.007,-0.0723 0.0116,-0.14358 0.0116,-0.21237 z m -0.7747,0.14005 v 0 c -0.0169,0.20603 -0.0787,0.3736 -0.18767,0.5133 -0.10972,0.14075 -0.25752,0.24694 -0.44662,0.32914 -0.1905,0.0818 -0.41875,0.13793 -0.68439,0.16333 -0.2621,0.0251 -0.55669,0.0233 -0.89464,-0.007 -0.32351,-0.031 -0.61595,-0.0826 -0.87455,-0.1584 -0.27163,-0.0815 -0.48223,-0.17533 -0.64239,-0.28822 -0.17322,-0.11888 -0.29424,-0.25223 -0.37253,-0.40992 -0.0808,-0.1584 -0.11009,-0.33549 -0.0914,-0.53905 0.0177,-0.20214 0.0815,-0.37077 0.19333,-0.51364 0.10478,-0.13794 0.25189,-0.24942 0.44239,-0.33232 0.18732,-0.0836 0.41098,-0.13582 0.68156,-0.16192 0.26917,-0.0247 0.56867,-0.0222 0.88972,0.01 0.31607,0.0261 0.61277,0.079 0.88405,0.15663 0.254,0.0787 0.46355,0.17286 0.64241,0.28822 0.16616,0.11889 0.29176,0.25542 0.37288,0.40711 0.0808,0.15804 0.10935,0.33655 0.0878,0.54328"></path>
    <path id="path106-0" style="fill:#565353;fill-opacity:1;fill-rule:nonzero;stroke:none;stroke-width:0.0352777" d="m 5.3499649,52.837358 0.0445,10e-4 c 0.13405,0 0.24236,-0.006 0.34113,-0.0194 l 0.0413,-0.005 c 0,0 0.0183,-1.83268 0.0205,-1.92299 0.0878,0 1.69016,0.0145 1.77835,0.0145 0,0.0907 -0.012,1.49649 -0.012,1.49649 l 0.0377,0.005 0.16228,0.0194 0.0102,0.004 c 0.001,0 0.0229,0.002 0.0229,0.002 l 0.1591,0.004 0.11395,-0.003 0.0575,-7.9e-4 c 0.0614,-0.005 0.11854,-0.009 0.1711,-0.0183 l 0.0377,-0.006 c 0,0 0.0145,-1.40335 0.0169,-1.49401 0.0864,0 1.38818,0.012 1.47638,0.0148 -0.003,0.0899 -0.0173,1.87148 -0.0173,1.87148 l 0.0385,0.007 c 0.0452,0.008 0.0998,0.0134 0.1756801,0.0183 l 0.17604,0.006 c 0.11889,0 0.23566,-0.006 0.34255,-0.0177 l 0.0427,-0.004 0.0212,-2.62608 -5.5816501,-0.0469 v 0.0469 l -0.0215,2.62749 0.0406,0.004 c 0.0522,0.0102 0.11147,0.0159 0.1711,0.0183 l 0.13264,0.005"></path>
    <path id="path108-5" style="fill:#565353;fill-opacity:1;fill-rule:nonzero;stroke:none;stroke-width:0.0352777" d="m 10.827895,55.228848 c -0.031,-0.33726 -0.12841,-0.63007 -0.29281,-0.86995 -0.16862,-0.23778 -0.39087,-0.43039 -0.6607501,-0.5708 -0.26387,-0.14005 -0.57749,-0.23742 -0.93556,-0.28716 -0.35984,-0.0526 -0.74754,-0.0621 -1.15394,-0.0265 -0.4064,0.0356 -0.78705,0.10725 -1.13383,0.2152 -0.34502,0.11006 -0.64241,0.25788 -0.87842,0.4385 -0.24271,0.18697 -0.42827,0.41381 -0.54715,0.67275 -0.12242,0.25929 -0.16969,0.56373 -0.14394,0.90487 0.0311,0.34466 0.12524,0.629 0.28787,0.86925 0.1644,0.23495 0.37677,0.42051 0.65405,0.57079 0.26106,0.13688 0.5775,0.23354 0.9391,0.28434 0.35877,0.0487 0.74612,0.0561 1.15252,0.0215 0.41734,-0.0385 0.79657,-0.10795 1.13171,-0.21167 0.34713,-0.10548 0.64206,-0.25364 0.8798301,-0.43744 0.24236,-0.1838 0.43004,-0.40922 0.55351,-0.6671 0.12629,-0.26706 0.17392,-0.56268 0.14781,-0.90664 z m -0.8773601,0.6043 c -0.0818,0.15205 -0.20919,0.28999 -0.38029,0.40323 -0.1711,0.11324 -0.38876,0.20743 -0.64311,0.27763 -0.2593,0.0755 -0.54787,0.12383 -0.88089,0.15346 -0.33056,0.0261 -0.63006,0.024 -0.889,-0.005 -0.26882,-0.0264 -0.49001,-0.0822 -0.68157,-0.17074 -0.19332,-0.0829 -0.33866,-0.19367 -0.44415,-0.3362 -0.10583,-0.13899 -0.16651,-0.30656 -0.18415,-0.51364 -0.018,-0.20285 0.0117,-0.3803 0.0974,-0.54152 0.0811,-0.15698 0.20461,-0.28821 0.37924,-0.40428 0.1725,-0.11289 0.38417,-0.20461 0.64417,-0.2801 0.25788,-0.072 0.55492,-0.12171 0.883,-0.14852 0.32103,-0.0268 0.62089,-0.0268 0.88936,0.002 0.2614,0.0293 0.49212,0.084 0.68227,0.16933 0.1852,0.0854 0.33267,0.19509 0.43991,0.33514 0.10583,0.14147 0.1661601,0.3115 0.1830901,0.52105 0.0162,0.20179 -0.0169,0.38277 -0.0952,0.53728"></path>
    <path id="path110-6" style="fill:#565353;fill-opacity:1;fill-rule:nonzero;stroke:none;stroke-width:0.0352777" d="m 17.317945,75.446188 0.0571,-0.0289 c 0.0427,-0.018 0.0878,-0.0385 0.13547,-0.0691 0.0427,-0.0201 0.0808,-0.0427 0.11642,-0.0639 l 0.0381,-0.024 c 0.004,-0.002 0.0282,-0.0183 0.0282,-0.0183 l 0.11677,-0.0815 c 0.002,-0.003 0.12559,-0.1069 0.12559,-0.1069 l 0.031,-0.0289 -0.0236,-0.0325 -1.67146,-2.60209 -0.0356,0.0145 c -0.0427,0.0177 -0.0924,0.0434 -0.14958,0.0737 0.002,0 -0.11183,0.0646 -0.11183,0.0646 l -0.0427,0.0226 -0.14535,0.10478 -0.11853,0.0924 -0.0476,0.0427 0.024,0.0363 c 0,0 0.57256,0.89182 0.62018,0.9659 -0.0808,0.0515 -4.03648,2.59433 -4.03648,2.59433 l 0.0166,0.0349 c 0.043,0.10019 0.0974,0.2025 0.16157,0.30022 0.0571,0.0899 0.12136,0.17815 0.19967,0.26352 l 0.0265,0.0335 c 0,0 3.96064,-2.54177 4.0386,-2.59151 0.0501,0.0759 0.647,1.00365 0.647,1.00365"></path>
    <path id="path112-9" style="fill:#565353;fill-opacity:1;fill-rule:nonzero;stroke:none;stroke-width:0.0352777" d="m 7.3830249,61.954548 c 0.30162,0.002 0.63464,-0.0286 0.99377,-0.0991 l 3.2332101,-0.61948 -10e-4,-0.0441 c -0.005,-0.11078 -0.0198,-0.22613 -0.0413,-0.34361 -0.0169,-0.10724 -0.043,-0.21308 -0.0808,-0.32985 l -0.0145,-0.0399 -3.1012701,0.59514 c -0.2981,0.0582 -0.56585,0.0914 -0.79763,0.0991 -0.2286,0.007 -0.4057,-0.0124 -0.54892,-0.0632 -0.14288,-0.0462 -0.25718,-0.12065 -0.33796,-0.22472 -0.0833,-0.10971 -0.14006,-0.24765 -0.17216,-0.42404 -0.0321,-0.18027 -0.0296,-0.33196 0.0106,-0.46002 0.0356,-0.12665 0.11395,-0.24024 0.23072,-0.3422 0.12594,-0.10124 0.29245,-0.18803 0.49177,-0.26105 0.21167,-0.0755 0.47237,-0.14217 0.77541,-0.19967 l 3.0998601,-0.59479 v -0.0416 c -0.002,-0.0924 -0.0141,-0.20285 -0.0356,-0.33303 -0.019,-0.10407 -0.0466,-0.21025 -0.0854,-0.33514 l -0.0145,-0.0413 -0.0406,0.01 -3.1951101,0.61066 c -0.35418,0.0656 -0.6678,0.15664 -0.96061,0.27834 -0.27446,0.1076 -0.50377,0.25259 -0.68192,0.42757 -0.17815,0.17321 -0.29951,0.381 -0.36371,0.61666 -0.0692,0.24024 -0.0713,0.51576 -0.0155,0.81809 0.0582,0.30762 0.15557,0.55527 0.30303,0.756 0.14429,0.19403 0.33302,0.34078 0.56127,0.43956 0.22084,0.0952 0.47766,0.14358 0.78916,0.14605"></path>
    <path id="path114-4" style="fill:#565353;fill-opacity:1;fill-rule:nonzero;stroke:none;stroke-width:0.0352777" d="m 6.7028649,49.127908 c 0.21167,0.0219 0.41169,0.0137 0.58738,-0.0208 0.18062,-0.0381 0.33055,-0.0988 0.45861,-0.18556 0.13229,-0.0885 0.25224,-0.19473 0.35313,-0.31997 0.0988,-0.12241 0.19861,-0.26529 0.29986,-0.43638 l 0.19826,-0.34714 c 0.055,-0.09 0.10724,-0.1711 0.15452,-0.23671 0.0536,-0.0699 0.1143,-0.13406 0.18415,-0.18662 0.0631,-0.0519 0.13335,-0.09 0.21766,-0.11642 0.084,-0.0286 0.17604,-0.0374 0.26882,-0.0261 0.24977,0.0205 0.42086,0.10089 0.52987,0.24765 0.1068901,0.14428 0.1499301,0.34255 0.1284101,0.60325 -0.0176,0.19367 -0.0522,0.35666 -0.1044201,0.49988 -0.0526,0.14253 -0.10936,0.26988 -0.16687,0.37783 l -0.0257,0.0455 0.0473,0.0212 c 0.1950901,0.0903 0.4011101,0.15664 0.6304101,0.20109 l 0.0356,0.008 0.0166,-0.0317 c 0.0759,-0.14393 0.14252,-0.30657 0.19721,-0.48154 0.0572,-0.18557 0.0952,-0.37818 0.1143,-0.58667 0.0437,-0.4879 -0.0596,-0.88689 -0.30445,-1.18181 -0.2473,-0.29492 -0.6110101,-0.46637 -1.0819701,-0.50659 -0.1972,-0.0191 -0.36583,-0.0116 -0.51682,0.0198 -0.15099,0.0328 -0.28187,0.0797 -0.39934,0.14887 -0.11677,0.0663 -0.21872,0.15099 -0.30551,0.25188 -0.0762,0.0861 -0.14993,0.19086 -0.23283,0.32808 l -0.20955,0.34784 c -0.0737,0.12101 -0.14958,0.24166 -0.22931,0.36054 -0.0702,0.1009 -0.14358,0.18345 -0.21625,0.24307 -0.0748,0.0614 -0.16192,0.10654 -0.25788,0.13123 -0.10724,0.0265 -0.22578,0.0321 -0.35172,0.0194 -0.28328,-0.025 -0.49001,-0.12312 -0.63253,-0.30056 -0.14746,-0.17569 -0.20461,-0.42792 -0.17709,-0.77047 0.0215,-0.22225 0.0593,-0.40393 0.11324,-0.54187 0.0554,-0.14005 0.121,-0.27799 0.19932,-0.42439 l 0.0236,-0.0469 -0.0497,-0.0187 c -0.10689,-0.0423 -0.21907,-0.0878 -0.33408,-0.12629 -0.13899,-0.0483 -0.24589,-0.0769 -0.34819,-0.0921 l -0.0346,-0.005 -0.0145,0.0332 -0.12241,0.25505 c -0.0356,0.0755 -0.0688,0.16334 -0.0995,0.26459 -0.0286,0.0797 -0.0522,0.17356 -0.0737,0.29845 -0.0212,0.1023 -0.0332,0.22331 -0.0466,0.3489 l -0.004,0.0102 c -0.0462,0.5581 0.0716,1.01248 0.35172,1.34797 0.28293,0.33726 0.69674,0.53128 1.22908,0.57714"></path>
    <path id="path116-4" style="fill:#565353;fill-opacity:1;fill-rule:nonzero;stroke:none;stroke-width:0.0352777" d="m 98.621225,50.904848 c -0.0103,-0.1009 -0.0222,-0.21449 -0.0455,-0.3422 -0.0167,-0.10265 -0.0381,-0.22084 -0.0762,-0.33514 -0.0307,-0.0907 -0.0685,-0.19543 -0.12171,-0.29386 l -0.0138,-0.0257 h -0.0289 l -2.71675,0.006 -0.01,0.0476 c -0.008,0.0445 -0.0177,0.0938 -0.0212,0.14711 -0.005,0.055 -0.01,0.11218 -0.01,0.16722 0,0.0547 0.005,0.11395 0.01,0.16475 0.005,0.0536 0.0138,0.11218 0.0257,0.16545 l 0.01,0.0349 c 0,0 2.07467,-0.004 2.14418,-0.004 0.0236,0.066 0.0402,0.139 0.0522,0.21767 0.0193,0.0914 0.0268,0.19826 0.0268,0.34184 0,0.006 0,0.013 0,0.0201 0,0.20284 -0.0388,0.39334 -0.1171,0.5662 -0.0822,0.17569 -0.20709,0.33197 -0.3729,0.45897 -0.17815,0.13088 -0.39511,0.23424 -0.64276,0.30374 -0.25646,0.0716 -0.55596,0.10795 -0.92215,0.11042 -0.34221,0 -0.6523,-0.0339 -0.92146,-0.10407 -0.26882,-0.0684 -0.49035,-0.16228 -0.67099,-0.29033 -0.17814,-0.11889 -0.31644,-0.27023 -0.40886,-0.44486 -0.0938,-0.17674 -0.14075,-0.36689 -0.14075,-0.58349 -0.003,-0.19333 0.0146,-0.36195 0.049,-0.49954 0.0332,-0.1344 0.0748,-0.25752 0.11994,-0.37394 l 0.0193,-0.0448 -0.0476,-0.0166 c -0.10935,-0.0385 -0.21167,-0.0692 -0.30938,-0.097 l -0.009,-0.003 c -0.0833,-0.0173 -0.2046,-0.0427 -0.33726,-0.0487 l -0.0314,-7.9e-4 -0.0146,0.0293 c -0.0688,0.14887 -0.12382,0.31186 -0.15769,0.48366 -0.0402,0.18486 -0.0596,0.39758 -0.0572,0.63006 0.003,0.31962 0.0723,0.61348 0.21061,0.87418 0.1351,0.26318 0.33232,0.49001 0.58949,0.68157 0.25152,0.19015 0.56338,0.33655 0.92321,0.43392 0.34854,0.10124 0.74084,0.14922 1.19944,0.14922 0.43992,0 0.8368,-0.0497 1.18676,-0.15134 0.35171,-0.0981 0.65368,-0.24553 0.89853,-0.43462 0.24693,-0.18874 0.43709,-0.42122 0.56372,-0.69356 0.12806,-0.26952 0.19261,-0.57997 0.19261,-0.9204 0,-0.11042 -0.008,-0.22542 -0.0169,-0.32632"></path>
    <path id="path118-5" style="fill:#565353;fill-opacity:1;fill-rule:nonzero;stroke:none;stroke-width:0.0352777" d="m 12.140225,62.902468 -0.003,-0.0406 c -0.002,-0.0512 -0.0116,-0.10513 -0.0212,-0.15911 l -0.001,-0.005 c -0.008,-0.06 -0.0226,-0.11712 -0.0406,-0.16863 -0.013,-0.0554 -0.0307,-0.10971 -0.0511,-0.16686 -10e-4,-0.002 -0.012,-0.0286 -0.012,-0.0286 l -0.0748,-0.1531 -0.0356,0.013 -5.3276501,1.49578 0.68827,2.45321 0.0416,-0.007 c 0.11889,-0.0208 0.23319,-0.0452 0.34114,-0.0765 0.001,-0.002 0.0512,-0.0155 0.0512,-0.0155 l 0.11536,-0.0374 c 0.0522,-0.0155 0.10689,-0.0353 0.16616,-0.061 l 0.037,-0.0155 c 0,0 -0.46249,-1.64924 -0.48754,-1.73708 0.0921,-0.0257 4.6136301,-1.29046 4.6136301,-1.29046"></path>
    <path id="path120-1" style="fill:#565353;fill-opacity:1;fill-rule:nonzero;stroke:none;stroke-width:0.0352777" d="m 15.651425,71.077388 c 0,-0.002 -0.0713,-0.15029 -0.0713,-0.15029 l -0.012,-0.0208 c 0,-0.004 -0.10477,-0.17357 -0.10477,-0.17357 -0.0377,-0.0621 -0.0737,-0.1143 -0.10936,-0.15451 l -0.0191,-0.0212 -0.0286,0.007 -5.5865901,1.29435 0.012,0.0469 c 0.0116,0.0501 0.0307,0.0977 0.0571,0.15557 0.0215,0.0512 0.0501,0.10584 0.0808,0.16263 0.024,0.0437 0.0501,0.0974 0.0854,0.14711 l 0.0952,0.12982 0.0261,0.0325 c 0,0 1.18851,-0.30304 1.25765,-0.32032 0.0332,0.061 0.76271,1.41499 0.79658,1.47531 -0.0526,0.049 -0.95603,0.87771 -0.95603,0.87771 l 0.007,0.0279 c 0.0141,0.0522 0.0332,0.10619 0.0617,0.16334 0.0187,0.0462 0.0427,0.0981 0.0713,0.15205 0.0332,0.0628 0.0642,0.11606 0.0998,0.1651 0.0381,0.0593 0.0759,0.11183 0.10231,0.14499 l 0.0332,0.0402 4.18183,-3.9751 z m -2.93123,2.06621 c -0.0501,-0.0942 -0.55845,-1.03399 -0.60854,-1.12994 0.10442,-0.0254 2.23414,-0.56868 2.55058,-0.64982 -0.24236,0.22049 -1.86125,1.70497 -1.94204,1.77976"></path>
    <path id="path122-57" style="fill:#565353;fill-opacity:1;fill-rule:nonzero;stroke:none;stroke-width:0.0352777" d="m 14.429405,68.909208 c -0.005,-0.0473 -0.0169,-0.0949 -0.0356,-0.15346 -0.019,-0.0589 -0.036,-0.10583 -0.0522,-0.14322 -0.019,-0.0501 -0.043,-0.0981 -0.0737,-0.15628 -0.0261,-0.0536 -0.0596,-0.10301 -0.0907,-0.14359 l -0.0215,-0.0296 c 0,0 -3.29247,1.38077 -3.63925,1.52753 0.24977,-0.28646 2.90265,-3.30729 2.90265,-3.30729 l -0.005,-0.0236 c -0.007,-0.049 -0.0212,-0.0977 -0.0381,-0.15204 0,-0.002 -0.0547,-0.14499 -0.0547,-0.14499 0,-0.002 -0.01,-0.0243 -0.01,-0.0243 -0.0166,-0.0353 -0.0332,-0.0765 -0.0564,-0.11818 -0.024,-0.0452 -0.0526,-0.0921 -0.0857,-0.13582 l -0.0219,-0.031 -0.0356,0.0148 -5.0895301,2.13537 0.004,0.0374 c 0.005,0.0427 0.0169,0.0864 0.0314,0.133 l 0.005,0.0148 c 0.0141,0.0497 0.0335,0.0967 0.0621,0.16333 0.0141,0.0381 0.0381,0.0907 0.0688,0.14253 l 0.0783,0.13546 0.0212,0.0356 0.0381,-0.0187 c 0,0 3.2452001,-1.36173 3.5877501,-1.5053 -0.24765,0.28469 -2.8769101,3.30517 -2.8769101,3.30517 l 0.003,0.0212 c 0.007,0.0501 0.0212,0.0995 0.0356,0.15381 0,10e-4 0.0543,0.14711 0.0543,0.14711 0,10e-4 0.004,0.006 0.004,0.006 l 0.0631,0.13406 c 0.0261,0.049 0.0522,0.0889 0.0857,0.13405 l 0.0212,0.0328 5.1255101,-2.15088 -0.005,-0.0356"></path>
    <path id="path124-9" style="fill:#565353;fill-opacity:1;fill-rule:nonzero;stroke:none;stroke-width:0.0352777" d="m 21.126195,79.123888 c -0.0519,-0.28857 -0.19015,-0.56374 -0.40889,-0.82056 -0.22082,-0.25929 -0.47024,-0.43744 -0.744,-0.53728 -0.27199,-0.0907 -0.56374,-0.11889 -0.86536,-0.0811 -0.31151,0.0476 -0.62512,0.15487 -0.93204,0.31644 -0.31362,0.16158 -0.62477,0.37395 -0.95285,0.65229 -0.32385,0.27481 -0.58385,0.54786 -0.79446,0.83644 -0.2159,0.28469 -0.37042,0.57679 -0.45861,0.86466 -0.0882,0.28539 -0.10725,0.5782 -0.0575,0.86571 0.0526,0.28046 0.19297,0.55633 0.41416,0.82021 0.21837,0.25894 0.46813,0.4378 0.73907,0.53516 0.27128,0.0998 0.55386,0.12559 0.86571,0.0854 0.29457,-0.0406 0.60855,-0.14746 0.92922,-0.31645 0.31609,-0.16404 0.63747,-0.38488 0.94615,-0.65158 0.32138,-0.27093 0.58984,-0.55386 0.79833,-0.83432 0.22191,-0.29245 0.37608,-0.58243 0.46427,-0.86536 0.0875,-0.2928 0.10689,-0.58385 0.0568,-0.8696 z m -0.84137,0.72955 c -0.0737,0.19508 -0.19475,0.39899 -0.36196,0.60325 -0.16087,0.20461 -0.36584,0.41169 -0.62478,0.6357 -0.2614,0.21837 -0.49917,0.38947 -0.72989,0.51823 -0.22825,0.12806 -0.44909,0.21308 -0.65123,0.25894 -0.20214,0.0402 -0.38276,0.0378 -0.55633,-0.0145 -0.16651,-0.0526 -0.31609,-0.15699 -0.44944,-0.3115 -0.13547,-0.1591 -0.2092,-0.32103 -0.2353,-0.49671 -0.005,-0.0423 -0.009,-0.0882 -0.009,-0.13335 0,-0.13547 0.0282,-0.27235 0.0829,-0.4184 0.0759,-0.19649 0.19544,-0.39476 0.36125,-0.60113 0.16192,-0.20179 0.36653,-0.40922 0.62759,-0.635 0.24977,-0.21167 0.49494,-0.38523 0.72531,-0.51611 0.22578,-0.13088 0.44415,-0.21873 0.65158,-0.26177 0.20426,-0.0402 0.38488,-0.0317 0.55351,0.0194 0.16686,0.0501 0.31926,0.15451 0.44944,0.30938 0.133,0.15417 0.21412,0.3235 0.23741,0.49671 0.0265,0.17322 0,0.35172 -0.0709,0.54681"></path>
    <path id="path126-89" style="fill:#565353;fill-opacity:1;fill-rule:nonzero;stroke:none;stroke-width:0.0352777" d="m 97.104285,63.266528 c -0.0526,-0.27481 -0.17674,-0.53904 -0.37147,-0.78246 -0.19828,-0.2346 -0.4445,-0.44027 -0.75814,-0.62935 -0.29456,-0.1778 -0.63923,-0.33056 -1.05373,-0.46461 -0.38666,-0.13018 -0.7666,-0.21379 -1.1236,-0.24942 -0.35878,-0.0353 -0.68969,-0.0145 -0.98073,0.0572 -0.29457,0.0748 -0.55245,0.2092 -0.77153,0.40217 -0.21659,0.19297 -0.37994,0.45438 -0.48858,0.77717 -0.10303,0.32702 -0.12808,0.63394 -0.0649,0.91228 0.0593,0.28646 0.18381,0.54293 0.38031,0.78423 0.19225,0.23601 0.43921,0.44062 0.75354,0.63076 0.30091,0.18098 0.65368,0.34008 1.05021,0.47379 0.41309,0.13264 0.77999,0.21307 1.12995,0.2413 0.36688,0.0349 0.68649,0.0166 0.98036,-0.0607 0.2907,-0.072 0.54999,-0.20885 0.76447,-0.40323 0.21624,-0.19579 0.37711,-0.45049 0.48225,-0.77858 0.0617,-0.18556 0.0977,-0.36653 0.10441,-0.53834 0.004,-0.12876 -0.005,-0.25329 -0.0328,-0.37218 z m -0.79623,0.67416 c -0.0667,0.19438 -0.16685,0.34678 -0.30197,0.45473 -0.1337,0.11218 -0.29985,0.18627 -0.50766,0.22648 -0.20849,0.0381 -0.44624,0.0392 -0.70485,0.006 -0.27128,-0.0356 -0.56372,-0.10513 -0.87029,-0.20814 -0.3115,-0.10019 -0.58597,-0.21731 -0.81775,-0.34713 -0.24482,-0.13794 -0.42825,-0.27446 -0.55737,-0.42439 -0.14288,-0.14676 -0.23215,-0.30445 -0.27694,-0.48013 -0.0427,-0.1711 -0.0339,-0.35137 0.0328,-0.54681 0.0646,-0.19438 0.16438,-0.3489 0.29739,-0.4579 0.14041,-0.11395 0.30903,-0.19015 0.50411,-0.2219 0.20815,-0.0399 0.4445,-0.043 0.70628,-0.0102 0.26598,0.0353 0.5461,0.10125 0.86535,0.20532 0.31326,0.10477 0.5916,0.22225 0.81915,0.34995 0.23108,0.12877 0.42193,0.27094 0.56303,0.42122 0.14113,0.15522 0.23884,0.31644 0.27659,0.48472 0.0201,0.0787 0.0293,0.16298 0.0251,0.25117 -0.003,0.0956 -0.0225,0.19509 -0.0529,0.29739"></path>
    <path id="path128-8" style="fill:#565353;fill-opacity:1;fill-rule:nonzero;stroke:none;stroke-width:0.0352777" d="m 83.721665,85.031158 c 0,0 -0.50977,-0.079 -0.57256,-0.0875 -0.0476,-0.54398 -0.29493,-1.1557 -0.78425,-1.92617 l -0.0314,-0.0469 -0.50414,0.44133 0.0241,0.0356 c 0.35703,0.53798 0.57116,0.99448 0.65865,1.39135 -0.41592,-0.0705 -1.046,-0.18909 -1.75471,-0.32808 0.1143,-0.3235 0.17145,-0.60642 0.17145,-0.86113 0,-0.35525 -0.1129,-0.65229 -0.34468,-0.91475 -0.23317,-0.26635 -0.51858,-0.41734 -0.82266,-0.43745 -0.28012,-0.0194 -0.56092,0.0801 -0.78952,0.28222 -0.30409,0.2667 -0.43249,0.59479 -0.43249,0.91793 0,0.34502 0.14251,0.6851 0.37216,0.94686 0.23636,0.26811 0.5955,0.46778 1.0414,0.57961 -0.0677,0.22895 -0.10406,0.44556 -0.10406,0.65123 0,0.43286 0.1478,0.82021 0.44519,1.15429 0.27588,0.31256 0.63466,0.50764 1.0146,0.54822 0.41135,0.0451 0.81103,-0.0907 1.15393,-0.39159 0.40851,-0.36019 0.6269,-0.80645 0.66746,-1.36066 0.0716,0.007 0.30409,0.0377 0.30409,0.0377 l 0.34607,0.0455 0.0169,-0.0145 0.63572,-0.55633 z m -3.50591,-0.62336 c -0.34256,-0.0875 -0.61844,-0.20426 -0.8382,-0.4512 -0.15066,-0.17322 -0.23673,-0.37077 -0.23673,-0.54469 0,-0.0138 0.003,-0.0257 0.003,-0.0374 0.01,-0.13123 0.066,-0.24059 0.16899,-0.33055 0,0 0.003,-0.005 0.005,-0.007 0.26141,-0.23142 0.59407,-0.0907 0.80574,0.1464 0.14782,0.16792 0.20463,0.35666 0.20463,0.57961 0,0.18804 -0.0427,0.40288 -0.1115,0.64453 z m 1.92299,2.03764 c 0,0.002 -0.005,0.005 -0.005,0.005 h -0.003 c -0.40568,0.35454 -0.98353,0.28681 -1.37617,-0.16157 -0.19511,-0.22154 -0.2921,-0.48507 -0.2921,-0.78458 0,-0.11183 0.0169,-0.23071 0.0437,-0.35278 0.75531,0.14535 1.55398,0.28152 2.03552,0.35737 0,0.005 0,0.007 0,0.01 0,0.2353 -0.0617,0.62512 -0.40428,0.92675"></path>
    <path id="path130-4" style="fill:#565353;fill-opacity:1;fill-rule:nonzero;stroke:none;stroke-width:0.0352777" d="m 79.654115,89.110328 c 0,0.002 -0.097,-0.14711 -0.097,-0.14711 -0.0709,-0.10442 -0.13796,-0.19509 -0.20675,-0.27305 l -0.0286,-0.0311 c 0,0 -1.51657,1.02906 -1.59314,1.07915 -0.0501,-0.0716 -0.94826,-1.39594 -0.99801,-1.46967 0.0734,-0.0519 1.23614,-0.83679 1.23614,-0.83679 l -0.0169,-0.0378 c -0.022,-0.0497 -0.0501,-0.0995 -0.0822,-0.15451 -0.0272,-0.0476 -0.0582,-0.0974 -0.0935,-0.14958 0,-0.003 -0.0169,-0.0257 -0.0169,-0.0257 l -0.0878,-0.11854 -0.0758,-0.0889 -0.0624,-0.0688 -0.0328,0.0243 c 0,0 -1.12962,0.76412 -1.20264,0.81527 -0.0497,-0.0716 -0.77999,-1.149 -0.82973,-1.22131 0.0734,-0.0508 1.5494,-1.05128 1.5494,-1.05128 l -0.0167,-0.0388 c -0.0236,-0.0452 -0.0497,-0.0924 -0.0832,-0.15205 -0.0378,-0.0593 -0.0709,-0.10724 -0.0999,-0.1471 -0.0638,-0.0977 -0.13017,-0.18803 -0.20671,-0.27199 l -0.0282,-0.0325 -0.0335,0.0247 -2.13961,1.44957 3.13584,4.61927 2.21332,-1.50566 -0.0167,-0.0339 c -0.0262,-0.0607 -0.0547,-0.11113 -0.0861,-0.15628"></path>
    <path id="path132-8" style="fill:#565353;fill-opacity:1;fill-rule:nonzero;stroke:none;stroke-width:0.0352777" d="m 83.810195,78.871658 -0.0241,-0.0325 c -0.0332,-0.0402 -0.0688,-0.0794 -0.11181,-0.12206 l -0.005,-0.008 -0.12843,-0.12736 c -0.003,-0.002 -0.13123,-0.1143 -0.13123,-0.1143 -0.0515,-0.0427 -0.0974,-0.0734 -0.14004,-0.0984 l -0.0346,-0.0208 -0.0246,0.0293 -2.09937,2.27542 0.13865,0.16087 c 0.003,0 0.0279,0.0275 0.0279,0.0275 l 0.10054,0.096 c 0.0374,0.0385 0.085,0.0759 0.133,0.11395 0.0427,0.0328 0.0924,0.0716 0.14111,0.1016 l 0.0346,0.0208 c 0,0 0.74401,-0.8068 0.80327,-0.87277 0.0688,0.0635 3.52777,3.25684 3.52777,3.25684 l 0.0314,-0.0261 c 0.0808,-0.067 0.1665,-0.14534 0.24939,-0.23319 0.0723,-0.0832 0.14148,-0.16651 0.20463,-0.25964 l 0.0236,-0.0339 c 0,0 -3.45405,-3.19193 -3.52568,-3.25649 0.0621,-0.0649 0.80857,-0.87665 0.80857,-0.87665"></path>
    <path id="path134-8" style="fill:#565353;fill-opacity:1;fill-rule:nonzero;stroke:none;stroke-width:0.0352777" d="m 97.810195,58.397848 c 0.003,0 -0.16192,-0.0303 -0.16192,-0.0303 -0.0706,-0.009 -0.13055,-0.0138 -0.18169,-0.0162 l -0.0427,-0.003 -0.008,0.0406 c 0,0 -0.30692,1.64077 -0.32351,1.73037 -0.0917,-0.0159 -4.71064,-0.87983 -4.71064,-0.87983 l -0.0145,0.0381 c -0.019,0.0498 -0.0356,0.10478 -0.0522,0.15558 -0.0138,0.0564 -0.029,0.11254 -0.0388,0.17004 l -0.0204,0.14358 -0.003,0.0257 c 0,0.003 -0.003,0.008 -0.003,0.008 l -0.007,0.19226 0.0402,0.006 5.44089,1.01494 0.46707,-2.50331 -0.0402,-0.0109 c -0.10266,-0.0328 -0.21413,-0.0635 -0.3415,-0.0815"></path>
    <path id="path136-6" style="fill:#565353;fill-opacity:1;fill-rule:nonzero;stroke:none;stroke-width:0.0352777" d="m 89.599275,78.890348 -0.13546,-0.11112 c -0.10758,-0.0861 -0.19791,-0.14746 -0.28327,-0.19756 l -0.036,-0.0215 c 0,0 -1.13419,1.43616 -1.19063,1.50672 -0.0692,-0.0543 -1.3268,-1.04564 -1.39842,-1.09749 0.0554,-0.0741 0.92498,-1.17229 0.92498,-1.17229 l -0.0262,-0.031 c -0.0307,-0.0335 -0.0617,-0.0624 -0.0977,-0.0949 l -0.0282,-0.0261 -0.13263,-0.11959 h -0.003 c -0.0381,-0.0307 -0.0829,-0.0635 -0.14042,-0.0998 -0.0448,-0.0328 -0.0974,-0.066 -0.14711,-0.0896 l -0.0335,-0.0159 c 0,0 -0.86995,1.09714 -0.9271,1.1684 -0.0688,-0.0547 -1.08657,-0.86078 -1.15501,-0.9151 0.0547,-0.0716 1.15501,-1.46685 1.15501,-1.46685 l -0.0262,-0.0303 c -0.0311,-0.0381 -0.0713,-0.0762 -0.12594,-0.12277 0,-0.001 -0.13335,-0.11042 -0.13335,-0.11042 -0.11112,-0.0875 -0.19968,-0.14993 -0.28046,-0.19967 l -0.0381,-0.0215 -0.0262,0.0328 -1.6002,2.02811 4.38184,3.45864 1.65489,-2.09903 -0.0235,-0.0303 c -0.0356,-0.0409 -0.0811,-0.0808 -0.12843,-0.12171"></path>
    <path id="path138-6" style="fill:#565353;fill-opacity:1;fill-rule:nonzero;stroke:none;stroke-width:0.0352777" d="m 75.998665,90.770848 -0.0413,-0.0318 -0.0286,0.043 c -0.0801,0.121 -0.17076,0.22825 -0.278,0.3242 -0.1016,0.0988 -0.22543,0.18697 -0.38735,0.2794 -0.19968,0.10936 -0.3937,0.17145 -0.58915,0.18345 -0.19508,0.0162 -0.39052,-0.0169 -0.58737,-0.0974 -0.19542,-0.0861 -0.38735,-0.22613 -0.56939,-0.41628 -0.19367,-0.19014 -0.37851,-0.44661 -0.54715,-0.75388 -0.30409,-0.53728 -0.4572,-1.01988 -0.4572,-1.43863 0,-0.048 0,-0.0949 0.004,-0.1397 0.0438,-0.44238 0.25437,-0.76553 0.64982,-0.98707 0.0974,-0.0522 0.17674,-0.0949 0.25188,-0.12841 0.066,-0.03 0.13017,-0.0543 0.20992,-0.078 0.0663,-0.0205 0.13933,-0.0335 0.18944,-0.0452 l 0.042,-0.007 0.20003,-0.0356 -0.007,-0.0466 -0.0691,-0.32703 c -0.0257,-0.10195 -0.0635,-0.2092 -0.11464,-0.32103 l -0.0138,-0.0307 -0.0374,0.005 c -0.16578,0.0226 -0.32347,0.0593 -0.48789,0.10795 -0.17814,0.0522 -0.37393,0.13793 -0.58454,0.25541 -0.2921,0.16228 -0.5207,0.36901 -0.69638,0.62724 -0.16899,0.25012 -0.27483,0.53552 -0.31433,0.8516 -0.0378,0.31115 -0.014,0.6537 0.073,1.01283 0.0864,0.35983 0.23884,0.7366 0.45542,1.11936 0.21839,0.38524 0.45368,0.70591 0.70379,0.95568 0.26848,0.2667 0.53446,0.45437 0.81704,0.57573 0.28824,0.121 0.58491,0.17463 0.88336,0.15663 0.30586,-0.0166 0.60995,-0.109 0.90242,-0.27587 0.20108,-0.11394 0.36758,-0.23036 0.5108,-0.3563 0.15346,-0.13759 0.28295,-0.2854 0.39196,-0.45156 l 0.0209,-0.0289 -0.0209,-0.0257 c -0.13055,-0.17392 -0.28964,-0.33267 -0.47451,-0.47484"></path>
    <path id="path140-9" style="fill:#565353;fill-opacity:1;fill-rule:nonzero;stroke:none;stroke-width:0.0352777" d="m 90.915845,64.948578 -0.0804,0.12841 c 0,0.003 -0.005,0.008 -0.005,0.008 l -0.0635,0.13229 c -0.0225,0.0469 -0.0427,0.1009 -0.0578,0.1584 -0.0214,0.061 -0.036,0.11289 -0.0455,0.16087 l -0.006,0.0381 c 0,0 3.28295,1.41464 3.62585,1.5628 -0.37714,0.0187 -4.38963,0.20885 -4.38963,0.20885 l -0.014,0.0159 c -0.0272,0.0381 -0.0547,0.0794 -0.0815,0.13441 -0.0328,0.0554 -0.0561,0.0998 -0.0702,0.14076 l -0.055,0.14534 -0.0345,0.12348 -0.0151,0.0681 0.0363,0.0169 5.07682,2.18335 0.0547,-0.0857 0.0504,-0.0766 v -10e-4 l 0.0233,-0.0547 0.0455,-0.0967 c 0.0236,-0.049 0.0402,-0.0995 0.0557,-0.15064 0.0191,-0.0483 0.0314,-0.0963 0.0416,-0.15346 l 0.008,-0.0374 c 0,0 -3.26777,-1.40476 -3.61104,-1.55258 0.37748,-0.0198 4.37621,-0.22189 4.37621,-0.22189 l 0.0135,-0.0169 c 0.0293,-0.042 0.0561,-0.0847 0.084,-0.13652 0.0265,-0.042 0.0451,-0.0868 0.0691,-0.14041 0,-0.001 0.0145,-0.0384 0.0145,-0.0384 l 0.0378,-0.10477 c 0.0193,-0.0572 0.0339,-0.10901 0.043,-0.1577 l 0.005,-0.0377 -5.11137,-2.19569 -0.0214,0.0332"></path>
    <path id="path142-6" style="fill:#565353;fill-opacity:1;fill-rule:nonzero;stroke:none;stroke-width:0.0352777" d="m 89.241565,68.893338 c -0.0353,0.0406 -0.066,0.0861 -0.097,0.13088 l -0.004,0.005 -0.0547,0.0882 -0.0364,0.0621 -0.003,0.002 -0.0723,0.15452 c -0.0251,0.0554 -0.0437,0.10759 -0.0568,0.14781 l -0.01,0.0388 c 0,0 1.89616,1.03152 1.97837,1.07597 -0.0444,0.078 -0.85268,1.56104 -0.89535,1.63865 -0.0811,-0.0445 -1.9752,-1.07738 -1.9752,-1.07738 l -0.0243,0.031 c -0.0286,0.0332 -0.0677,0.0825 -0.0995,0.13653 0,-0.002 -0.0893,0.14358 -0.0893,0.14358 -0.003,0.002 -0.005,0.008 -0.005,0.008 -0.0251,0.0483 -0.0519,0.0981 -0.0698,0.14782 0.003,-0.002 -0.06,0.15593 -0.06,0.15593 l -0.0156,0.0377 0.0377,0.0194 4.8514,2.64089 0.0257,-0.03 c 0.0335,-0.0388 0.0653,-0.0825 0.1002,-0.13159 l 0.0903,-0.14887 0.0773,-0.15628 0.003,-0.003 0.0172,-0.0508 0.0494,-0.14111 -0.0374,-0.0177 c 0,0 -2.10574,-1.14723 -2.18935,-1.19097 0.0455,-0.0787 0.85125,-1.55858 0.89501,-1.63795 0.0797,0.0452 2.22213,1.20721 2.22213,1.20721 l 0.0233,-0.0268 c 0.0307,-0.0363 0.0593,-0.0741 0.0991,-0.13265 0.003,0 0.085,-0.13864 0.085,-0.13864 l 0.006,-0.01 c 0.0286,-0.055 0.0554,-0.11183 0.0773,-0.16157 0,0 0.0512,-0.13935 0.0512,-0.13935 l 0.019,-0.0466 -4.89022,-2.66277 -0.0243,0.0307"></path>
    <path id="path144-2" style="fill:#565353;fill-opacity:1;fill-rule:nonzero;stroke:none;stroke-width:0.0352777" d="m 91.190665,75.146318 -0.0508,-0.007 -0.005,0.0497 c -0.0124,0.15628 -0.0378,0.29457 -0.0759,0.42192 -0.0473,0.15064 -0.1143,0.2981 -0.19719,0.43921 -0.10972,0.1898 -0.25011,0.34184 -0.41275,0.45367 -0.16968,0.11642 -0.35102,0.18309 -0.55668,0.20461 -0.21238,0.0307 -0.44133,0.006 -0.70168,-0.0642 -0.25434,-0.0667 -0.53305,-0.18909 -0.85407,-0.37324 -0.59936,-0.35419 -0.99873,-0.73837 -1.18145,-1.13912 -0.0762,-0.16369 -0.1189,-0.3242 -0.12877,-0.48366 -0.0114,-0.23424 0.0511,-0.46425 0.18873,-0.69779 l 0.0209,-0.0356 c 0.0448,-0.0727 0.0886,-0.14112 0.13123,-0.19579 0.0547,-0.0776 0.0974,-0.13512 0.1397,-0.17886 0.048,-0.0508 0.0952,-0.0963 0.14042,-0.13512 l 0.0988,-0.0801 0.0935,-0.0758 -0.0328,-0.0353 c -0.0804,-0.0938 -0.15346,-0.17604 -0.22614,-0.2473 -0.0653,-0.072 -0.14711,-0.14217 -0.25611,-0.21978 l -0.0289,-0.0201 -0.0282,0.0229 c -0.1143,0.0878 -0.24096,0.20214 -0.36902,0.33514 -0.13017,0.1397 -0.25752,0.31432 -0.37571,0.51964 -0.17073,0.28434 -0.26598,0.5835 -0.28503,0.89112 -0.0204,0.30233 0.0346,0.60254 0.15697,0.89358 0.12137,0.28999 0.31152,0.56339 0.57574,0.83644 0.25577,0.26987 0.57716,0.51823 0.95639,0.73942 0.37922,0.22578 0.73837,0.3803 1.0936,0.46814 0.35314,0.0953 0.68546,0.12135 0.99343,0.0861 0.30549,-0.0377 0.59089,-0.14216 0.84103,-0.3115 0.25646,-0.16757 0.46567,-0.39476 0.63958,-0.69215 0.10866,-0.1785 0.19542,-0.37041 0.26281,-0.56409 0.0593,-0.18344 0.0956,-0.375 0.11007,-0.58667 l 0.003,-0.0342 -0.0307,-0.0127 c -0.18838,-0.0811 -0.40428,-0.1404 -0.64804,-0.17145"></path>
    <path id="path146-31" style="fill:#565353;fill-opacity:1;fill-rule:nonzero;stroke:none;stroke-width:0.0352777" d="m 63.056305,91.316948 -0.0381,0.005 -0.12488,0.0155 -0.0427,0.007 c -0.0614,0.01 -0.11676,0.0229 -0.16684,0.037 -0.0586,0.013 -0.11396,0.0332 -0.16653,0.0508 -0.0512,0.018 -0.0991,0.0388 -0.15063,0.0642 l -0.0356,0.0173 1.42875,5.37951 0.0392,-0.003 c 0.0526,-0.004 0.10655,-0.009 0.16298,-0.0183 0.003,-0.003 0.0487,-0.0109 0.0487,-0.0109 l 0.12242,-0.0307 c 0.0607,-0.0148 0.11641,-0.0286 0.16544,-0.0494 0.003,0 0.0593,-0.0243 0.0593,-0.0243 l 0.12843,-0.0536 -0.009,-0.042 -1.42066,-5.34388"></path>
    <path id="path148-3" style="fill:#565353;fill-opacity:1;fill-rule:nonzero;stroke:none;stroke-width:0.0352777" d="m 49.828195,94.636588 c -0.0448,-0.35207 -0.13758,-0.66781 -0.278,-0.93804 -0.1397,-0.2734 -0.33266,-0.49565 -0.56586,-0.66357 -0.23246,-0.16687 -0.52282,-0.27058 -0.86466,-0.30092 -0.3383,-0.03 -0.64204,0.0173 -0.90382,0.13864 -0.26387,0.12347 -0.49212,0.30656 -0.67767,0.54786 -0.18275,0.2406 -0.33266,0.53517 -0.44696,0.87595 -0.11219,0.33761 -0.18487,0.70909 -0.22297,1.1303 -0.036,0.40852 -0.031,0.79728 0.0159,1.15323 0.0455,0.36019 0.14075,0.67487 0.28117,0.94157 0.13547,0.26916 0.32525,0.49106 0.56338,0.65969 0.23706,0.16298 0.53022,0.26423 0.86712,0.29492 0.33549,0.0268 0.63994,-0.0141 0.9063,-0.13194 0.25612,-0.12029 0.48472,-0.30303 0.67522,-0.5461 0.18555,-0.24094 0.333,-0.53481 0.44132,-0.87806 0.11007,-0.34008 0.18627,-0.71896 0.22154,-1.13171 0.0381,-0.41734 0.0332,-0.80539 -0.0119,-1.15182 z m -0.77189,1.08126 c -0.0363,0.34784 -0.0868,0.63641 -0.15733,0.88512 -0.0737,0.25048 -0.1711,0.46708 -0.2854,0.63888 -0.11147,0.1704 -0.24942,0.29457 -0.40675,0.37924 -0.16086,0.0825 -0.33938,0.11112 -0.53906,0.0882 -0.2046,-0.0169 -0.38028,-0.079 -0.51609,-0.18767 -0.13796,-0.10584 -0.24837,-0.25577 -0.33057,-0.44591 -0.0808,-0.18063 -0.13582,-0.40394 -0.16828,-0.68334 -0.0265,-0.26634 -0.0241,-0.56444 0.007,-0.89146 0.0321,-0.32456 0.0829,-0.61878 0.15806,-0.87595 0.0723,-0.25683 0.16756,-0.47237 0.28151,-0.63924 0.11676,-0.17391 0.25469,-0.29986 0.40921,-0.37465 0.157,-0.0829 0.33303,-0.11641 0.5394,-0.10019 0.20921,0.0226 0.37817,0.0861 0.5133,0.19403 0.1411,0.10513 0.25222,0.24836 0.3362,0.44239 0.0829,0.19755 0.1397,0.42651 0.16545,0.68051 0.0243,0.26035 0.022,0.56021 -0.006,0.89005"></path>
    <path id="path150-8" style="fill:#565353;fill-opacity:1;fill-rule:nonzero;stroke:none;stroke-width:0.0352777" d="m 98.395455,56.271658 v 0"></path>
    <path id="path152-7" style="fill:#565353;fill-opacity:1;fill-rule:nonzero;stroke:none;stroke-width:0.0352777" d="m 44.177755,92.198898 c -0.003,0 -0.0282,-0.007 -0.0282,-0.007 l -0.14745,-0.0385 c -0.10444,-0.0233 -0.21662,-0.0427 -0.3542,-0.0543 l -0.0339,-0.002 c 0,0 -1.93286,3.86292 -2.0941,4.18148 -0.007,-0.35631 -0.10228,-4.6736 -0.10228,-4.6736 l -0.0282,-0.0148 c -0.0585,-0.0229 -0.11641,-0.0441 -0.17885,-0.0628 l -0.17852,-0.0487 -0.13721,-0.0261 -0.0526,-0.008 c -0.073,-0.009 -0.13018,-0.0152 -0.17815,-0.0152 h -0.0512 l 0.25472,5.76403 0.14605,0.0505 0.0635,0.0212 0.13864,0.0402 0.0497,0.012 c 0.003,0 0.19473,0.0339 0.19473,0.0339 0.0624,0.009 0.12348,0.0187 0.19016,0.0208 l 0.0307,0.003 2.70968,-5.09447 -0.0469,-0.0219 c -0.0522,-0.0236 -0.11078,-0.0413 -0.16616,-0.0593"></path>
    <path id="path154-5" style="fill:#565353;fill-opacity:1;fill-rule:nonzero;stroke:none;stroke-width:0.0352777" d="m 53.295295,93.164798 -0.0222,-0.17463 -0.0427,0.002 -2.45779,-0.002 v 0.0494 l -0.007,5.52556 0.0378,0.008 c 0.0427,0.008 0.0903,0.013 0.16404,0.0215 0.06,0.006 0.11605,0.006 0.1732,0.006 0.0526,0.002 0.10726,0 0.1764,-0.006 0.003,0 0.15946,-0.0215 0.15946,-0.0215 l 0.0399,-0.006 -0.003,-0.0427 c 0,0 0.005,-2.36785 0.005,-2.45957 0.09,0 1.46685,0 1.46685,0 l 0.0182,-0.21449 0.007,-0.17568 -0.003,-0.12559 -0.003,-0.049 -0.0169,-0.16051 -0.007,-0.0572 c 0,0 -1.37371,-0.004 -1.46367,-0.004 0,-0.0878 0.003,-1.42311 0.003,-1.5113 0.0903,0 1.7498,0.004 1.7498,0.004 l 0.0262,-0.21378 c 0.005,-0.0716 0.007,-0.12841 0.007,-0.17921 0,-0.06 0,-0.11818 -0.007,-0.17851 0,0.002 -0.003,-0.0363 -0.003,-0.0363"></path>
    <path id="path156-0" style="fill:#565353;fill-opacity:1;fill-rule:nonzero;stroke:none;stroke-width:0.0352777" d="m 58.125525,95.814508 c -0.0649,-0.15875 -0.15451,-0.29492 -0.2713,-0.41098 -0.10935,-0.11748 -0.23987,-0.21167 -0.3824,-0.28787 -0.14499,-0.0762 -0.30938,-0.14499 -0.48718,-0.20637 l -0.37219,-0.12983 c -0.10125,-0.0317 -0.18698,-0.066 -0.2667,-0.10583 -0.0818,-0.0406 -0.15311,-0.0857 -0.2173,-0.14076 -0.0614,-0.0526 -0.1143,-0.11994 -0.15947,-0.19438 -0.0374,-0.0691 -0.0635,-0.15204 -0.0783,-0.25717 -0.0268,-0.24448 0.0225,-0.43286 0.14533,-0.56797 0.11748,-0.13371 0.30763,-0.21414 0.56515,-0.24236 0.18347,-0.0243 0.35455,-0.0212 0.5066,0.005 0.15452,0.0233 0.29245,0.0547 0.4078,0.0892 l 0.0491,0.0177 0.0116,-0.0497 c 0.0504,-0.21978 0.0762,-0.44062 0.0741,-0.65723 v -0.0353 l -0.0353,-0.008 c -0.16262,-0.0501 -0.33372,-0.0843 -0.50941,-0.10231 -0.19401,-0.0219 -0.39581,-0.0219 -0.59655,0.002 -0.49599,0.0557 -0.85582,0.22684 -1.09855,0.5274 -0.24482,0.29457 -0.33973,0.6851 -0.28961,1.15782 0.0222,0.20214 0.0614,0.36583 0.11853,0.50165 0.0596,0.1404 0.13581,0.26141 0.22331,0.36407 0.0924,0.10336 0.19261,0.18697 0.30691,0.24906 0.11076,0.0645 0.23424,0.1217 0.36582,0.17145 l 0.38311,0.13405 c 0.14748,0.0561 0.28507,0.1083 0.39794,0.15593 0.11255,0.0497 0.20603,0.10266 0.28223,0.16616 0.0734,0.055 0.133,0.13194 0.17568,0.22577 0.0452,0.0907 0.0748,0.20215 0.0903,0.34361 0.0311,0.27905 -0.0264,0.50094 -0.17602,0.67804 -0.14394,0.17674 -0.38524,0.28469 -0.71861,0.32209 -0.21625,0.0208 -0.40288,0.0159 -0.55597,-0.01 -0.15171,-0.0286 -0.30552,-0.0642 -0.45016,-0.11148 l -0.0533,-0.0159 -0.0681,0.40782 c -0.0198,0.13229 -0.0262,0.25188 -0.0198,0.35912 l 0.003,0.0335 0.19262,0.0526 0.10969,0.0272 c 0.0879,0.019 0.18064,0.0363 0.27835,0.0497 0.10443,0.0109 0.20391,0.013 0.31115,0.0109 0.1143,0 0.23283,-0.008 0.36618,-0.0243 0.5588,-0.061 0.97933,-0.26388 1.24777,-0.60607 0.278,-0.34043 0.38947,-0.78422 0.33232,-1.3148 -0.0254,-0.22684 -0.0709,-0.41557 -0.13721,-0.57291"></path>
    <path id="path158-0" style="fill:#565353;fill-opacity:1;fill-rule:nonzero;stroke:none;stroke-width:0.0352777" d="m 68.252725,95.126598 -0.0332,-0.0988 c -0.0356,-0.10195 -0.0737,-0.20426 -0.12383,-0.31856 l -0.0167,-0.0406 c 0,0 -1.74482,0.58032 -1.83054,0.6089 -0.0279,-0.0836 -0.53483,-1.60197 -0.56304,-1.68804 0.0861,-0.0286 1.42169,-0.47625 1.42169,-0.47625 l -0.0483,-0.20814 -0.0427,-0.16087 -0.003,-0.008 c -0.0236,-0.0603 -0.0402,-0.1143 -0.066,-0.16651 -0.0214,-0.0547 -0.0434,-0.10478 -0.0695,-0.15417 l -0.0193,-0.0353 c 0,0 -1.33316,0.44167 -1.41923,0.46954 -0.0257,-0.0829 -0.43638,-1.31445 -0.4653,-1.3977 0.0879,-0.0303 1.77552,-0.59161 1.77552,-0.59161 l -0.004,-0.042 c -0.0124,-0.0649 -0.0241,-0.11995 -0.0416,-0.16863 l -0.0519,-0.17074 c -0.0381,-0.11818 -0.0804,-0.22508 -0.12631,-0.31786 l -0.0167,-0.0381 -0.0399,0.0145 -2.45321,0.81562 1.76599,5.29308 2.53859,-0.84032 -0.0476,-0.2092 c 0,-0.003 -0.0212,-0.0702 -0.0212,-0.0702"></path>
    <path id="path160-6" style="fill:#565353;fill-opacity:1;fill-rule:nonzero;stroke:none;stroke-width:0.0352777" d="m 43.609425,96.803698 c -0.28752,-0.0522 -0.53729,0.13088 -0.58949,0.43145 -0.0282,0.15346 0,0.29845 0.0804,0.41099 0.0716,0.0998 0.17885,0.16898 0.30585,0.19191 l 0.0106,0.004 h 0.003 c 0.13864,0.0247 0.2681,-0.001 0.37571,-0.0773 0.11075,-0.0783 0.18483,-0.20638 0.21307,-0.35666 0.0251,-0.15452 -0.003,-0.30092 -0.0826,-0.41134 -0.0737,-0.10442 -0.1831,-0.16863 -0.31645,-0.19261"></path>
    <path id="path162-7" style="fill:#565353;fill-opacity:1;fill-rule:nonzero;stroke:none;stroke-width:0.0352777" d="m 62.298165,96.435048 -0.0286,-0.0427 -0.0413,0.0332 c -0.11676,0.0882 -0.23953,0.16405 -0.36335,0.2212 -0.13089,0.0617 -0.28541,0.10865 -0.45932,0.14393 -0.21518,0.0413 -0.42227,0.0413 -0.61806,-0.007 -0.18979,-0.049 -0.36195,-0.14146 -0.52248,-0.2801 -0.15697,-0.14253 -0.29702,-0.33373 -0.41627,-0.56974 -0.12099,-0.23989 -0.21378,-0.53199 -0.28117,-0.889 -0.0589,-0.28963 -0.0875,-0.55598 -0.0875,-0.80222 0,-0.32173 0.0501,-0.6036 0.1538,-0.84067 0.17391,-0.39934 0.48506,-0.64664 0.92216,-0.73201 0.11324,-0.0236 0.21309,-0.0356 0.28045,-0.0427 0.0819,-0.007 0.16018,-0.012 0.22262,-0.012 h 0.0114 c 0.0621,0.005 0.12383,0.01 0.17849,0.019 0.003,0 0.16687,0.0215 0.16687,0.0215 l 0.0776,0.0141 0.008,-0.0501 c 0.0167,-0.11677 0.0282,-0.22578 0.0385,-0.32773 0.007,-0.10725 0.004,-0.21872 -0.0103,-0.34114 l -0.006,-0.0346 -0.0311,-0.007 c -0.14356,-0.0272 -0.3048,-0.0423 -0.49564,-0.0501 -0.18487,-0.004 -0.40146,0.0148 -0.63995,0.06 -0.32983,0.0639 -0.62018,0.19226 -0.85759,0.38029 -0.24308,0.18874 -0.42792,0.42545 -0.5655,0.71085 -0.133,0.28328 -0.21696,0.61207 -0.24379,0.98672 -0.0293,0.37536 0,0.77964 0.0819,1.20403 0.085,0.42863 0.21023,0.81033 0.37359,1.12995 0.1665,0.32596 0.36618,0.59266 0.59441,0.79551 0.23672,0.21061 0.50237,0.35454 0.792,0.43145 0.29703,0.0765 0.61384,0.0811 0.94298,0.0148 0.22789,-0.043 0.42333,-0.10055 0.59724,-0.1778 0.16862,-0.0713 0.33444,-0.1711 0.51224,-0.30586 l 0.0265,-0.0208 -0.0114,-0.031 c -0.0639,-0.20214 -0.16264,-0.3997 -0.30128,-0.60149"></path>
    <path id="path164-9" style="fill:#565353;fill-opacity:1;fill-rule:nonzero;stroke:none;stroke-width:0.0352777" d="m 70.377135,88.447098 -0.14639,0.042 c -0.0572,0.018 -0.10197,0.0328 -0.14817,0.0547 -0.0526,0.0201 -0.1076,0.0497 -0.15382,0.0737 -0.003,0 -0.14182,0.0875 -0.14182,0.0875 l -0.0349,0.0205 0.0167,0.0399 c 0,0 1.43124,3.24062 1.58221,3.58458 -0.29244,-0.24483 -3.381,-2.85256 -3.381,-2.85256 l -0.0501,0.0123 c -0.0388,0.008 -0.0804,0.0194 -0.12594,0.0363 l -0.0677,0.0236 -0.0741,0.0286 c -0.003,10e-4 -0.0146,0.008 -0.0146,0.008 l -0.13086,0.0621 c -0.0497,0.0328 -0.0946,0.0571 -0.13123,0.0825 l -0.0328,0.0236 2.24859,5.10011 0.0642,-0.0152 c 0.0381,-0.008 0.0787,-0.0169 0.12277,-0.0321 0.0561,-0.018 0.10795,-0.0381 0.16015,-0.0624 0.0455,-0.0194 0.0882,-0.0413 0.1443,-0.0709 0.0437,-0.0212 0.0889,-0.0497 0.1337,-0.0832 l 0.031,-0.0247 c 0,0 -1.43827,-3.25719 -1.58538,-3.59798 0.28964,0.24201 3.37328,2.82857 3.37328,2.82857 l 0.022,-0.006 0.12806,-0.0328 0.0257,-0.007 c 0.0483,-0.0159 0.0921,-0.0307 0.1478,-0.0557 l 0.14007,-0.067 c 0.0451,-0.0257 0.0921,-0.054 0.13581,-0.0854 l 0.0303,-0.0208 -2.25073,-5.10434 -0.037,0.0102"></path>
    <path id="path166-1" style="fill:#565353;fill-opacity:1;fill-rule:nonzero;stroke:none;stroke-width:0.0352777" d="m 92.582035,46.161398 c 0,0.0635 0.004,0.12453 0.0114,0.17815 0.006,0.0596 0.013,0.11854 0.0209,0.17604 0,10e-4 0.008,0.0261 0.008,0.0261 l 0.0398,0.17145 0.0262,0.003 c 0,0 2.47967,0.71225 2.69383,0.77434 -0.19968,0.10231 -2.52942,1.28694 -2.52942,1.28694 l -0.007,0.20567 0.0119,0.18273 0.0209,0.18945 0.003,0.007 c 0,0.003 0.0398,0.18168 0.0398,0.18168 l 0.0146,0.0621 0.0547,-0.0314 c 0,0 3.302,-1.766 3.32105,-1.77694 0.0167,-10e-4 2.02954,-0.1898 2.02954,-0.1898 l 0.003,-0.0395 c 0.004,-0.0572 0.006,-0.10936 0.006,-0.16051 l -0.006,-0.17427 c 0,-0.005 -0.005,-0.0402 -0.005,-0.0402 l -0.0214,-0.13017 c 0,0.004 -0.0233,-0.11324 -0.0233,-0.11324 l -0.0222,-0.0931 -0.0427,0.002 c 0,0 -1.97205,0.18485 -1.98933,0.18627 -0.0204,-0.005 -3.64701,-1.12854 -3.64701,-1.12854 l -0.005,0.0589 c -0.003,0.0459 -0.006,0.0907 -0.006,0.13476 0,0.0162 2.6e-4,0.0328 2.6e-4,0.048 v 0.003"></path>
    <path id="path168-8" style="fill:#565353;fill-opacity:1;fill-rule:nonzero;stroke:none;stroke-width:0.0352777" d="m 19.824785,17.018778 c -0.5909,0.0349 -1.11618,0.27587 -1.55575,0.71296 -0.44238,0.4378 -0.68262,0.96308 -0.71578,1.54834 -0.036,0.58879 0.14463,1.09785 0.54186,1.49119 0.39935,0.40076 0.90135,0.58244 1.49296,0.54822 0.5849,-0.0332 1.11055,-0.26882 1.54765,-0.70838 0.4445,-0.44238 0.68191,-0.96767 0.72035,-1.55257 0.0328,-0.59196 -0.14957,-1.09432 -0.54467,-1.49331 -0.39688,-0.39687 -0.89818,-0.58067 -1.48662,-0.54645 z m 0.90665,2.18228 c 0.007,0.28646 -0.0875,0.52564 -0.27834,0.7179 -0.19722,0.1958 -0.43675,0.28787 -0.72003,0.28117 -0.28504,-0.0124 -0.53023,-0.12665 -0.73448,-0.32597 -0.20638,-0.20214 -0.31397,-0.4512 -0.32597,-0.73695 -0.007,-0.28575 0.0885,-0.52917 0.27799,-0.71896 0.19332,-0.19192 0.4378,-0.2854 0.72108,-0.27976 0.28716,0.0113 0.53411,0.12242 0.73908,0.33056 0.20426,0.20496 0.31184,0.44908 0.32067,0.73201"></path>
    <path id="path170-4" style="fill:#565353;fill-opacity:1;fill-rule:nonzero;stroke:none;stroke-width:0.0352777" d="m 24.251455,17.925058 -5.80179,5.79297 c -0.01,0.005 -0.01,0.0166 -0.003,0.024 l 0.70133,0.7045 c 0.007,0.006 0.0205,0.006 0.024,-0.002 0,0 2.40807,-2.39747 2.43169,-2.4264 l 0.36336,0.36759 c -0.0236,0.0247 -1.8041,1.80199 -1.8041,1.80199 -0.007,0.008 -0.007,0.0204 0.005,0.0251 l 0.67274,0.67486 c 0.003,0.006 0.0138,0.006 0.0209,0 0,0 3.59905,-3.59198 3.62762,-3.62267 0.019,0.0307 0.2921,0.29951 0.31822,0.32561 -0.0262,0.024 -3.62691,3.6135 -3.62691,3.6135 -0.004,0.0116 -0.004,0.0194 0,0.0286 l 1.06008,1.06045 c 0.22119,0.22084 0.38947,0.35172 0.60854,0.36336 0.23215,0.008 0.39688,-0.10442 0.58208,-0.29139 l 3.93171,-3.9236 c 0.007,-0.005 0.009,-0.0166 0.003,-0.0212 l -0.67273,-0.67769 c -0.007,-0.005 -0.019,-0.01 -0.0262,0 l -3.58495,3.57293 c -0.0135,0.0145 -0.0448,0.024 -0.0656,0.005 0,0 -0.28575,-0.2861 -0.30691,-0.31362 0.0212,-0.024 3.46535,-3.45687 3.46535,-3.45687 0.055,-0.0568 0.084,-0.11747 0.0765,-0.17604 -0.005,-0.0713 -0.0452,-0.121 -0.0836,-0.16368 l -1.39489,-1.39806 c -0.10935,-0.0963 -0.19719,-0.0236 -0.20709,-0.0155 0,0 -1.62348,1.62031 -1.65134,1.64888 l -0.36441,-0.36971 c 0.0241,-0.025 2.42956,-2.42358 2.42956,-2.42358 0.004,-0.007 0.007,-0.0141 0,-0.0219 l -0.70096,-0.70521 c -0.0103,-0.008 -0.019,-0.008 -0.0268,0"></path>
    <path id="path172-93" style="fill:#565353;fill-opacity:1;fill-rule:nonzero;stroke:none;stroke-width:0.0352777" d="m 12.582265,24.975678 -0.58138,1.01988 c -0.004,0.01 -0.002,0.019 0.006,0.0272 0,0 2.0186,1.14371 2.0447,1.15923 -0.0145,0.0282 -1.01282,1.78541 -1.01282,1.78541 -0.006,0.0116 -0.005,0.0247 0.005,0.0286 l 0.89394,0.50871 c 0.002,0.005 0.01,0.007 0.012,0.005 0.005,0 0.01,-0.005 0.01,-0.008 0,0 1.00295,-1.76248 1.02094,-1.79105 0.0296,0.0166 5.24333,2.97392 5.24333,2.97392 0.007,0.002 0.0191,0.002 0.0241,-0.005 l 0.57997,-1.01953 c 0.003,-0.008 0.003,-0.019 -0.01,-0.0236 l -8.21425,-4.66783 c -0.01,-0.002 -0.019,-0.002 -0.0215,0.007"></path>
    <path id="path174-8" style="fill:#565353;fill-opacity:1;fill-rule:nonzero;stroke:none;stroke-width:0.0352777" d="m 16.074405,29.328598 -0.0452,0.0402 c -0.35419,0.32702 -0.88794,0.56586 -1.58292,0.69885 -0.7373,0.14288 -1.52894,-0.0272 -2.36467,-0.49918 l -1.57974,-0.89605 c -0.006,-0.005 -0.0215,-0.002 -0.0272,0.007 l -0.5983101,1.05692 c -0.007,0.007 -0.005,0.0236 0.006,0.0251 l 1.5818601,0.89888 c 0.8322,0.47237 1.38148,1.07209 1.6383,1.77412 0.2413,0.66569 0.30903,1.2446 0.21131,1.72014 l -0.009,0.0572 c -0.006,0.0251 0,0.0402 0.005,0.0469 0.0166,0.0183 0.0452,0.0243 0.0476,0.0243 l 0.0688,-0.012 0.90805,-0.12559 c 0.0141,0 0.0522,-0.0152 0.0596,-0.0621 0.0952,-0.3997 0.0808,-0.87383 -0.0455,-1.44074 -0.13758,-0.62054 -0.32279,-1.0795 -0.56903,-1.38853 0.39335,0.049 0.88089,-0.019 1.48485,-0.21979 0.5535,-0.18626 0.96625,-0.41698 1.25976,-0.70273 0.0381,-0.0296 0.0286,-0.0649 0.0198,-0.0804 l -0.3549,-0.84526 -0.0236,-0.0642 c -0.005,-0.006 -0.019,-0.0226 -0.0455,-0.0296 -0.009,0 -0.0286,0.007 -0.0451,0.0166"></path>
    <path id="path176-3" style="fill:#565353;fill-opacity:1;fill-rule:nonzero;stroke:none;stroke-width:0.0352777" d="m 52.807035,5.185198 v 0 c -0.006,0 -4.20299,0 -4.20299,0 -0.007,0 -0.0161,0.0071 -0.0161,0.01376 v 0.998715 c 0,0.01198 0.01,0.01659 0.0161,0.01659 0,0 3.04059,0 3.05329,0 0,1.473555 -0.37181,2.458156 -1.09431,3.133725 -0.73202,0.680863 -1.54517,1.131357 -2.41512,1.350432 l -0.0543,0.0092 c -0.007,0.0042 -0.036,0.01304 -0.0413,0.04269 -0.005,0.0071 -0.006,0.01376 -0.006,0.02151 0,0.01164 0.006,0.0254 0.0135,0.03669 l 0.0384,0.04339 0.49953,0.628297 c 0.003,0.0088 0.0212,0.02858 0.0564,0.02117 0.93451,-0.147109 1.89548,-0.672393 2.84869,-1.534231 0.95285,-0.87136 1.43828,-2.107493 1.43828,-3.875968 V 5.332343 c 0.003,-0.0046 0.006,-0.07726 -0.0265,-0.113948 -0.0335,-0.03316 -0.0935,-0.03316 -0.10724,-0.03316"></path>
    <path id="path178-5" style="fill:#565353;fill-opacity:1;fill-rule:nonzero;stroke:none;stroke-width:0.0352777" d="m 55.596115,4.396739 h -1.16594 c -0.009,0 -0.0151,0.01093 -0.0151,0.01659 v 9.443152 c 0,0.0074 0.006,0.01482 0.0151,0.01482 h 1.16594 c 0.009,0 0.0167,-0.0074 0.0167,-0.01482 V 4.413329 c 0,-0.0056 -0.007,-0.01659 -0.0167,-0.01659"></path>
    <path id="path180-0" style="fill:#565353;fill-opacity:1;fill-rule:nonzero;stroke:none;stroke-width:0.0352777" d="m 44.477265,10.941121 -5.65785,1.447799 c -0.0124,0 -0.0177,0.0088 -0.0124,0.01765 l 0.24694,0.965908 c 0,0.0092 0.0103,0.01447 0.0193,0.01447 l 4.61434,-1.179336 c 0.0307,-0.0049 0.0663,0.01905 0.0688,0.0501 l 0.56621,2.212621 c 0.003,0.01164 0.0116,0.01516 0.0188,0.0141 l 1.18639,-0.299508 c 0.01,-0.0042 0.0145,-0.01659 0.01,-0.02188 l -0.77293,-3.032126 c -0.0209,-0.07514 -0.0519,-0.128409 -0.10409,-0.161925 -0.0543,-0.03634 -0.1143,-0.04763 -0.18309,-0.02787"></path>
    <path id="path182-4" style="fill:#565353;fill-opacity:1;fill-rule:nonzero;stroke:none;stroke-width:0.0352777" d="m 41.334355,6.281983 c 0,0 -1.95191,0.503063 -1.98967,0.512588 -0.007,-0.03422 -0.19296,-0.751417 -0.19296,-0.751417 -0.003,-0.0095 -0.009,-0.01304 -0.0182,-0.0095 l -1.20756,0.308327 c -0.01,0.0021 -0.0148,0.01024 -0.0148,0.01976 0,0 0.18802,0.717902 0.19508,0.748946 -0.0381,0.01093 -1.97837,0.505179 -1.97837,0.505179 -0.009,0 -0.0135,0.0095 -0.0114,0.02011 l 0.24694,0.965552 c 0,0.0078 0.0116,0.01376 0.0188,0.0095 0,0 0.48048,-0.117827 0.76305,-0.1905 -0.13792,0.349601 -0.14957,0.756001 -0.054,1.136298 0.13793,0.532341 0.47024,0.941561 0.98848,1.207202 0.51401,0.268817 1.07739,0.325967 1.67394,0.176039 0.59407,-0.156633 1.06291,-0.472371 1.3857,-0.957791 0.32809,-0.48119 0.42334,-0.998009 0.28541,-1.534232 -0.0977,-0.371827 -0.302,-0.7239 -0.58738,-0.969785 0.28115,-0.07867 0.75388,-0.197908 0.75388,-0.197908 0.0116,0 0.0161,-0.0081 0.0161,-0.01765 l -0.25188,-0.968727 c 0,-0.0074 -0.009,-0.01304 -0.0212,-0.01199 z m -1.22237,3.263196 c -0.1323,0.239887 -0.33232,0.400402 -0.59407,0.465667 -0.26178,0.0642 -0.51118,0.02858 -0.7465,-0.124532 -0.23529,-0.1524 -0.39404,-0.365125 -0.46601,-0.640998 -0.0685,-0.276225 -0.0473,-0.583142 0.0878,-0.827262 0.13864,-0.24483 0.33796,-0.403931 0.59479,-0.468138 0.26175,-0.06632 0.51363,-0.02646 0.74612,0.126296 0.24024,0.147109 0.40428,0.401461 0.47591,0.681919 0.0688,0.275873 0.0377,0.53975 -0.0981,0.787048"></path>
    <path id="path184-5" style="fill:#565353;fill-opacity:1;fill-rule:nonzero;stroke:none;stroke-width:0.0352777" d="m 44.855085,6.632998 c 0,0 -1.13173,0.286456 -1.16453,0.294568 -0.007,-0.03104 -0.48753,-1.913818 -0.48753,-1.913818 -0.005,-0.01304 -0.0137,-0.01905 -0.0241,-0.01553 l -1.13419,0.291748 c -0.01,0 -0.0138,0.0113 -0.0138,0.01871 l 1.36242,5.322709 c 0.004,0.0095 0.009,0.01553 0.0209,0.01447 l 1.13419,-0.288574 c 0.0119,-0.0019 0.0161,-0.01093 0.014,-0.02045 0,0 -0.57996,-2.274006 -0.58703,-2.30999 0.0328,-0.0067 1.16488,-0.297391 1.16488,-0.297391 0.007,0 0.014,-0.0088 0.0119,-0.01834 l -0.2713,-1.071388 c -0.004,-0.0046 -0.0167,-0.0067 -0.0262,-0.0067"></path>
    <path id="path186-3" style="fill:#565353;fill-opacity:1;fill-rule:nonzero;stroke:none;stroke-width:0.0352777" d="m 82.748345,24.256368 -4.02447,-4.24075 c -0.003,-0.0106 -0.0146,-0.0106 -0.0225,-0.004 l -0.72427,0.69179 c -0.005,0.002 -0.005,0.0145 0,0.0205 l 3.28469,3.45757 c 0.014,0.0205 0.004,0.0568 -0.013,0.0773 l -1.65841,1.57974 c -0.008,0.002 -0.008,0.018 0,0.0261 l 0.83997,0.88724 c 0.005,0.004 0.0172,0.004 0.0241,0 l 2.27047,-2.15547 c 0.0543,-0.0533 0.0829,-0.11042 0.0903,-0.17216 0.003,-0.0621 -0.0138,-0.11924 -0.0667,-0.16792"></path>
    <path id="path188-7" style="fill:#565353;fill-opacity:1;fill-rule:nonzero;stroke:none;stroke-width:0.0352777" d="m 85.279165,19.238808 c 0,0 -1.38711,-1.4665 -1.41216,-1.49437 0.0251,-0.0219 0.55985,-0.52846 0.55985,-0.52846 0.01,-0.01 0.006,-0.0177 0,-0.0257 l -0.8569,-0.89888 c -0.006,-0.0141 -0.0201,-0.0141 -0.0251,-0.0042 0,0 -0.53938,0.50764 -0.55914,0.53093 -0.0272,-0.0233 -1.40441,-1.474611 -1.40441,-1.474611 -0.008,-0.0071 -0.0183,-0.0071 -0.0233,-0.0049 l -0.72319,0.684034 c -0.007,0.0099 -0.007,0.02434 0,0.02858 0,0 0.33761,0.354191 0.53726,0.566207 -0.37041,0.0568 -0.73093,0.24448 -1.00893,0.51082 -0.40606,0.38276 -0.59796,0.86995 -0.57891,1.45062 0.0177,0.57961 0.23847,1.10314 0.66323,1.5487 0.42262,0.44555 0.92922,0.69744 1.51164,0.74259 0.57926,0.0526 1.07421,-0.11888 1.47744,-0.49706 0.27974,-0.27305 0.49106,-0.61913 0.56443,-0.99025 0.19474,0.21414 0.53552,0.5648 0.53552,0.5648 0.007,0.01 0.0188,0.01 0.0236,0.004 l 0.71898,-0.68615 c 0.0108,-0.0113 0.0108,-0.0212 0,-0.0265 z m -3.43641,0.52105 c -0.27975,0.004 -0.51613,-0.0963 -0.70485,-0.29245 -0.18344,-0.1972 -0.27022,-0.43745 -0.25329,-0.71297 0.0169,-0.28081 0.12946,-0.52317 0.3383,-0.71825 0.20637,-0.19685 0.4812,-0.32279 0.76237,-0.32491 0.27834,0 0.51469,0.0967 0.69919,0.29175 0.18415,0.19508 0.26881,0.43285 0.25683,0.71261 -0.0188,0.27869 -0.15981,0.54716 -0.3683,0.74577 -0.20603,0.19861 -0.45474,0.29457 -0.73025,0.29845"></path>
    <path id="path190-3" style="fill:#565353;fill-opacity:1;fill-rule:nonzero;stroke:none;stroke-width:0.0352777" d="m 86.694865,22.481888 c 0,0 -0.80573,-0.84737 -0.83008,-0.86748 0.0243,-0.0279 1.43897,-1.36701 1.43897,-1.36701 0.005,-0.01 0.007,-0.0191 0,-0.0215 l -0.8082,-0.85478 c -0.005,-0.004 -0.0172,-0.01 -0.0222,0 l -3.98923,3.78354 c -0.007,0.008 -0.004,0.018 0,0.024 l 0.80962,0.84843 c 0.006,0.01 0.0159,0.01 0.0254,0 0,0 1.69969,-1.61431 1.72474,-1.63654 0.0236,0.0272 0.82833,0.87348 0.82833,0.87348 0.007,0.004 0.0169,0.006 0.0251,0 l 0.79761,-0.756 c 0.007,-0.007 0.007,-0.0183 0,-0.0261"></path>
    <path id="path192-2" style="fill:#9e9c9d;fill-opacity:1;fill-rule:nonzero;stroke:none;stroke-width:0.0352777" d="m 46.847215,79.244188 c 0.64241,-0.0113 1.10067,-0.23495 1.37194,-0.66428 0.25649,-0.41698 0.39442,-0.89006 0.40889,-1.42487 l -0.0241,-0.0141 c -0.34009,0.45614 -0.82269,0.6865 -1.44499,0.67521 -1.44815,-0.0406 -2.17027,-0.72495 -2.17805,-2.06586 0.005,-0.74683 0.20709,-1.34126 0.61383,-1.77059 0.40889,-0.43075 1.03153,-0.64735 1.87291,-0.65652 0.51858,0.009 0.94369,0.10195 1.27706,0.26564 0.33512,0.17074 0.59195,0.41134 0.76798,0.70626 0.33444,0.62547 0.49213,1.35326 0.47519,2.17981 0.009,0.95815 -0.20214,1.82351 -0.62087,2.6035 -0.45439,0.79622 -1.26682,1.20968 -2.44581,1.23367 -0.54223,0 -1.07034,-0.0928 -1.57411,-0.27094 l 0.19262,-1.06997 c 0.38523,0.17604 0.82269,0.26881 1.30741,0.27305 z m 1.42875,-2.82857 c 0.14994,-0.23777 0.22402,-0.53728 0.22402,-0.88688 0,-0.32068 -0.0787,-0.60643 -0.22931,-0.83185 -0.16545,-0.23284 -0.43426,-0.35173 -0.80293,-0.35702 -0.3496,0.005 -0.59653,0.12207 -0.756,0.35948 -0.15697,0.24942 -0.23706,0.52529 -0.23706,0.8442 0,0.32773 0.0801,0.6223 0.24201,0.86466 0.16862,0.25682 0.42262,0.38805 0.77504,0.39723 0.36584,-0.005 0.62477,-0.13335 0.78423,-0.38982"></path>
    <path id="path194-7" style="fill:#9e9c9d;fill-opacity:1;fill-rule:nonzero;stroke:none;stroke-width:0.0352777" d="m 55.346345,73.460748 h 1.31233 v 6.74159 l -1.48767,-0.002 v -5.20594 l -1.26153,0.92251 -0.74824,-0.87948 2.18511,-1.57656"></path>
    <path id="path196-2" style="fill:#9e9c9d;fill-opacity:1;fill-rule:nonzero;stroke:none;stroke-width:0.0352777" d="m 40.148305,73.453338 h 1.31199 v 6.74265 l -1.48836,-0.002 v -5.20418 l -1.25978,0.92146 -0.74893,-0.88124 2.18508,-1.57657"></path>
    <path id="path198-3" style="fill:#9e9c9d;fill-opacity:1;fill-rule:nonzero;stroke:none;stroke-width:0.0352777" d="m 61.231735,79.972318 c -0.3542,-0.21837 -0.61455,-0.50447 -0.792,-0.85831 -0.17955,-0.35418 -0.29139,-0.73236 -0.351,-1.13665 -0.0586,-0.38946 -0.0826,-0.76446 -0.0826,-1.11936 0,-0.43286 0.043,-0.85795 0.12629,-1.27459 0.091,-0.41768 0.22931,-0.79375 0.42299,-1.12147 0.19931,-0.34044 0.46601,-0.60431 0.80044,-0.81598 0.33092,-0.19685 0.74224,-0.29704 1.24037,-0.29704 0.5394,0.01 0.98602,0.1143 1.33773,0.3235 0.33938,0.21625 0.59973,0.50165 0.78528,0.84137 0.18487,0.34255 0.30904,0.71791 0.3796,1.13171 0.061,0.41311 0.0967,0.82233 0.0938,1.22167 0,0.39229 -0.0353,0.7874 -0.0974,1.18887 -0.0709,0.40392 -0.20601,0.77505 -0.39651,1.12465 -0.18521,0.34184 -0.45016,0.61525 -0.78951,0.8248 -0.34396,0.21378 -0.78952,0.32526 -1.32787,0.33266 -0.55914,-0.009 -1.01388,-0.13581 -1.34972,-0.36583 z m 2.01893,-0.91298 c 0.15029,-0.17816 0.25612,-0.39018 0.32068,-0.64947 0.0737,-0.26352 0.11713,-0.53446 0.13017,-0.81492 0,-0.27551 0,-0.52352 0,-0.72778 0.003,-0.23495 -0.003,-0.4893 -0.006,-0.7747 -0.0161,-0.27834 -0.0575,-0.5468 -0.1298,-0.80821 -0.0656,-0.2734 -0.17182,-0.49918 -0.3147,-0.66322 -0.16155,-0.16651 -0.37745,-0.25506 -0.65439,-0.25506 -0.26318,0 -0.47414,0.0885 -0.62548,0.25506 -0.14639,0.16157 -0.26212,0.38488 -0.33126,0.65828 -0.0585,0.26141 -0.0974,0.53023 -0.1203,0.80539 -0.0135,0.28822 -0.023,0.54258 -0.023,0.77788 0,0.20672 0.01,0.45437 0.0214,0.73025 0.018,0.28257 0.0582,0.55104 0.11642,0.81491 0.0699,0.26141 0.18309,0.47096 0.32596,0.64665 0.15452,0.1785 0.36407,0.26387 0.62408,0.26387 0.2921,0.002 0.50728,-0.0825 0.6664,-0.25893"></path>
  </g>
</svg>
